<svg xmlns="http://www.w3.org/2000/svg" width="991" height="998" style="background:#f8f8f8">
<line x1="518.2" y1="363.4" x2="521.1" y2="360.7" stroke="#e74c3c" stroke-width="1" />
<line x1="584.0" y1="434.2" x2="521.1" y2="360.7" stroke="#e74c3c" stroke-width="1" />
<line x1="518.2" y1="363.4" x2="584.0" y2="434.2" stroke="#e74c3c" stroke-width="1" />
<line x1="587.0" y1="431.5" x2="521.1" y2="360.7" stroke="#e74c3c" stroke-width="1" />
<line x1="584.0" y1="434.2" x2="587.0" y2="431.5" stroke="#e74c3c" stroke-width="1" />
<line x1="554.4" y1="695.2" x2="545.3" y2="703.6" stroke="#e74c3c" stroke-width="1" />
<line x1="428.5" y1="588.9" x2="539.9" y2="708.7" stroke="#e74c3c" stroke-width="1" />
<line x1="544.4" y1="684.4" x2="545.3" y2="703.6" stroke="#e74c3c" stroke-width="1" />
<line x1="428.2" y1="589.3" x2="539.5" y2="709.0" stroke="#e74c3c" stroke-width="1" />
<line x1="535.3" y1="692.9" x2="545.3" y2="703.6" stroke="#e74c3c" stroke-width="1" />
<line x1="554.4" y1="695.2" x2="544.4" y2="684.4" stroke="#e74c3c" stroke-width="1" />
<line x1="428.2" y1="589.3" x2="539.9" y2="708.7" stroke="#e74c3c" stroke-width="1" />
<line x1="544.4" y1="684.4" x2="535.3" y2="692.9" stroke="#e74c3c" stroke-width="1" />
<line x1="518.0" y1="319.5" x2="554.3" y2="285.7" stroke="#e74c3c" stroke-width="1" />
<line x1="518.0" y1="319.5" x2="538.2" y2="293.2" stroke="#e74c3c" stroke-width="1" />
<line x1="518.0" y1="319.5" x2="513.0" y2="314.0" stroke="#e74c3c" stroke-width="1" />
<line x1="554.3" y1="285.7" x2="549.3" y2="280.2" stroke="#e74c3c" stroke-width="1" />
<line x1="549.3" y1="280.2" x2="538.2" y2="293.2" stroke="#e74c3c" stroke-width="1" />
<line x1="554.3" y1="285.7" x2="538.2" y2="293.2" stroke="#e74c3c" stroke-width="1" />
<line x1="549.3" y1="280.2" x2="536.8" y2="291.8" stroke="#e74c3c" stroke-width="1" />
<line x1="513.0" y1="314.0" x2="515.8" y2="314.1" stroke="#e74c3c" stroke-width="1" />
<line x1="518.0" y1="319.5" x2="515.8" y2="314.1" stroke="#e74c3c" stroke-width="1" />
<line x1="538.2" y1="293.2" x2="515.8" y2="314.1" stroke="#e74c3c" stroke-width="1" />
<line x1="391.4" y1="299.8" x2="421.3" y2="324.7" stroke="#e74c3c" stroke-width="1" />
<line x1="361.0" y1="267.1" x2="364.6" y2="263.8" stroke="#e74c3c" stroke-width="1" />
<line x1="417.7" y1="328.1" x2="421.3" y2="324.7" stroke="#e74c3c" stroke-width="1" />
<line x1="344.1" y1="249.0" x2="347.7" y2="245.6" stroke="#e74c3c" stroke-width="1" />
<line x1="344.1" y1="249.0" x2="361.0" y2="267.1" stroke="#e74c3c" stroke-width="1" />
<line x1="347.7" y1="245.6" x2="364.6" y2="263.8" stroke="#e74c3c" stroke-width="1" />
<line x1="391.4" y1="299.8" x2="395.0" y2="296.5" stroke="#e74c3c" stroke-width="1" />
<line x1="391.4" y1="299.8" x2="417.7" y2="328.1" stroke="#e74c3c" stroke-width="1" />
<line x1="391.4" y1="299.8" x2="417.7" y2="328.1" stroke="#e74c3c" stroke-width="1" />
<line x1="344.1" y1="249.0" x2="364.6" y2="263.8" stroke="#e74c3c" stroke-width="1" />
<line x1="361.0" y1="267.1" x2="364.6" y2="263.8" stroke="#e74c3c" stroke-width="1" />
<line x1="347.7" y1="245.6" x2="364.6" y2="263.8" stroke="#e74c3c" stroke-width="1" />
<line x1="395.0" y1="296.5" x2="421.3" y2="324.7" stroke="#e74c3c" stroke-width="1" />
<line x1="391.4" y1="299.8" x2="395.0" y2="296.5" stroke="#e74c3c" stroke-width="1" />
<line x1="395.0" y1="296.5" x2="421.3" y2="324.7" stroke="#e74c3c" stroke-width="1" />
<line x1="391.4" y1="299.8" x2="395.0" y2="296.5" stroke="#e74c3c" stroke-width="1" />
<line x1="344.1" y1="249.0" x2="361.0" y2="267.1" stroke="#e74c3c" stroke-width="1" />
<line x1="361.0" y1="267.1" x2="364.6" y2="263.8" stroke="#e74c3c" stroke-width="1" />
<line x1="270.7" y1="317.2" x2="347.7" y2="245.6" stroke="#e74c3c" stroke-width="1" />
<line x1="270.7" y1="317.2" x2="344.4" y2="242.0" stroke="#e74c3c" stroke-width="1" />
<line x1="270.7" y1="317.2" x2="267.3" y2="313.6" stroke="#e74c3c" stroke-width="1" />
<line x1="267.3" y1="313.6" x2="344.4" y2="242.0" stroke="#e74c3c" stroke-width="1" />
<line x1="347.7" y1="245.6" x2="344.4" y2="242.0" stroke="#e74c3c" stroke-width="1" />
<line x1="462.6" y1="415.0" x2="465.5" y2="412.3" stroke="#e74c3c" stroke-width="1" />
<line x1="528.4" y1="485.9" x2="465.5" y2="412.3" stroke="#e74c3c" stroke-width="1" />
<line x1="462.6" y1="415.0" x2="528.4" y2="485.9" stroke="#e74c3c" stroke-width="1" />
<line x1="536.4" y1="488.7" x2="465.5" y2="412.3" stroke="#e74c3c" stroke-width="1" />
<line x1="528.4" y1="485.9" x2="536.4" y2="488.7" stroke="#e74c3c" stroke-width="1" />
<line x1="741.8" y1="603.9" x2="789.1" y2="654.7" stroke="#e74c3c" stroke-width="1" />
<line x1="798.2" y1="646.3" x2="789.1" y2="654.7" stroke="#e74c3c" stroke-width="1" />
<line x1="798.2" y1="646.3" x2="750.9" y2="595.5" stroke="#e74c3c" stroke-width="1" />
<line x1="750.9" y1="595.5" x2="789.1" y2="654.7" stroke="#e74c3c" stroke-width="1" />
<line x1="750.9" y1="595.5" x2="741.8" y2="603.9" stroke="#e74c3c" stroke-width="1" />
<line x1="716.0" y1="898.9" x2="891.5" y2="735.7" stroke="#e74c3c" stroke-width="1" />
<line x1="716.3" y1="899.2" x2="891.5" y2="735.7" stroke="#e74c3c" stroke-width="1" />
<line x1="708.3" y1="878.9" x2="762.8" y2="828.2" stroke="#e74c3c" stroke-width="1" />
<line x1="716.3" y1="899.2" x2="891.8" y2="736.1" stroke="#e74c3c" stroke-width="1" />
<line x1="716.7" y1="888.0" x2="771.2" y2="837.3" stroke="#e74c3c" stroke-width="1" />
<line x1="708.3" y1="878.9" x2="716.7" y2="888.0" stroke="#e74c3c" stroke-width="1" />
<line x1="762.8" y1="828.2" x2="771.2" y2="837.3" stroke="#e74c3c" stroke-width="1" />
<line x1="716.7" y1="888.0" x2="762.8" y2="828.2" stroke="#e74c3c" stroke-width="1" />
<line x1="750.9" y1="595.5" x2="865.8" y2="505.6" stroke="#e74c3c" stroke-width="1" />
<line x1="865.8" y1="505.6" x2="857.4" y2="496.5" stroke="#e74c3c" stroke-width="1" />
<line x1="885.8" y1="497.9" x2="770.6" y2="605.0" stroke="#e74c3c" stroke-width="1" />
<line x1="885.4" y1="497.5" x2="770.3" y2="604.6" stroke="#e74c3c" stroke-width="1" />
<line x1="759.4" y1="604.5" x2="865.8" y2="505.6" stroke="#e74c3c" stroke-width="1" />
<line x1="770.3" y1="604.6" x2="885.8" y2="497.9" stroke="#e74c3c" stroke-width="1" />
<line x1="759.4" y1="604.5" x2="750.9" y2="595.5" stroke="#e74c3c" stroke-width="1" />
<line x1="750.9" y1="595.5" x2="857.4" y2="496.5" stroke="#e74c3c" stroke-width="1" />
<line x1="213.7" y1="99.2" x2="99.2" y2="205.6" stroke="#e74c3c" stroke-width="1" />
<line x1="102.6" y1="209.3" x2="217.0" y2="102.9" stroke="#e74c3c" stroke-width="1" />
<line x1="213.7" y1="99.2" x2="99.2" y2="205.6" stroke="#e74c3c" stroke-width="1" />
<line x1="217.0" y1="102.9" x2="99.2" y2="205.6" stroke="#e74c3c" stroke-width="1" />
<line x1="102.6" y1="209.3" x2="217.0" y2="102.9" stroke="#e74c3c" stroke-width="1" />
<line x1="102.6" y1="209.3" x2="99.2" y2="205.6" stroke="#e74c3c" stroke-width="1" />
<line x1="217.0" y1="102.9" x2="213.7" y2="99.2" stroke="#e74c3c" stroke-width="1" />
<line x1="217.0" y1="102.9" x2="213.7" y2="99.2" stroke="#e74c3c" stroke-width="1" />
<line x1="217.0" y1="102.9" x2="213.7" y2="99.2" stroke="#e74c3c" stroke-width="1" />
<line x1="236.9" y1="280.9" x2="200.6" y2="314.7" stroke="#e74c3c" stroke-width="1" />
<line x1="236.9" y1="280.9" x2="240.3" y2="284.5" stroke="#e74c3c" stroke-width="1" />
<line x1="200.6" y1="314.7" x2="204.0" y2="318.3" stroke="#e74c3c" stroke-width="1" />
<line x1="240.3" y1="284.5" x2="204.0" y2="318.3" stroke="#e74c3c" stroke-width="1" />
<line x1="236.9" y1="280.9" x2="204.0" y2="318.3" stroke="#e74c3c" stroke-width="1" />
<line x1="267.1" y1="320.6" x2="274.1" y2="320.8" stroke="#e74c3c" stroke-width="1" />
<line x1="340.6" y1="399.7" x2="314.4" y2="371.5" stroke="#e74c3c" stroke-width="1" />
<line x1="344.3" y1="396.3" x2="318.0" y2="368.1" stroke="#e74c3c" stroke-width="1" />
<line x1="270.5" y1="324.2" x2="274.1" y2="320.8" stroke="#e74c3c" stroke-width="1" />
<line x1="314.4" y1="371.5" x2="318.0" y2="368.1" stroke="#e74c3c" stroke-width="1" />
<line x1="280.6" y1="335.1" x2="270.5" y2="324.2" stroke="#e74c3c" stroke-width="1" />
<line x1="284.2" y1="331.7" x2="267.1" y2="320.6" stroke="#e74c3c" stroke-width="1" />
<line x1="284.2" y1="331.7" x2="274.1" y2="320.8" stroke="#e74c3c" stroke-width="1" />
<line x1="280.6" y1="335.1" x2="270.5" y2="324.2" stroke="#e74c3c" stroke-width="1" />
<line x1="267.1" y1="320.6" x2="270.7" y2="317.2" stroke="#e74c3c" stroke-width="1" />
<line x1="340.6" y1="399.7" x2="344.3" y2="396.3" stroke="#e74c3c" stroke-width="1" />
<line x1="267.1" y1="320.6" x2="270.5" y2="324.2" stroke="#e74c3c" stroke-width="1" />
<line x1="344.3" y1="396.3" x2="314.4" y2="371.5" stroke="#e74c3c" stroke-width="1" />
<line x1="340.6" y1="399.7" x2="314.4" y2="371.5" stroke="#e74c3c" stroke-width="1" />
<line x1="267.1" y1="320.6" x2="270.5" y2="324.2" stroke="#e74c3c" stroke-width="1" />
<line x1="344.3" y1="396.3" x2="318.0" y2="368.1" stroke="#e74c3c" stroke-width="1" />
<line x1="280.6" y1="335.1" x2="284.2" y2="331.7" stroke="#e74c3c" stroke-width="1" />
<line x1="284.2" y1="331.7" x2="274.1" y2="320.8" stroke="#e74c3c" stroke-width="1" />
<line x1="270.7" y1="317.2" x2="274.1" y2="320.8" stroke="#e74c3c" stroke-width="1" />
<line x1="314.4" y1="371.5" x2="318.0" y2="368.1" stroke="#e74c3c" stroke-width="1" />
<line x1="280.6" y1="335.1" x2="267.1" y2="320.6" stroke="#e74c3c" stroke-width="1" />
<line x1="267.1" y1="320.6" x2="270.7" y2="317.2" stroke="#e74c3c" stroke-width="1" />
<line x1="270.7" y1="317.2" x2="274.1" y2="320.8" stroke="#e74c3c" stroke-width="1" />
<line x1="267.1" y1="320.6" x2="270.7" y2="317.2" stroke="#e74c3c" stroke-width="1" />
<line x1="280.6" y1="335.1" x2="284.2" y2="331.7" stroke="#e74c3c" stroke-width="1" />
<line x1="284.2" y1="331.7" x2="270.7" y2="317.2" stroke="#e74c3c" stroke-width="1" />
<line x1="314.4" y1="371.5" x2="318.0" y2="368.1" stroke="#e74c3c" stroke-width="1" />
<line x1="280.6" y1="335.1" x2="284.2" y2="331.7" stroke="#e74c3c" stroke-width="1" />
<line x1="454.0" y1="294.3" x2="421.3" y2="324.7" stroke="#e74c3c" stroke-width="1" />
<line x1="457.4" y1="297.9" x2="454.0" y2="294.3" stroke="#e74c3c" stroke-width="1" />
<line x1="424.7" y1="328.4" x2="421.3" y2="324.7" stroke="#e74c3c" stroke-width="1" />
<line x1="457.4" y1="297.9" x2="424.7" y2="328.4" stroke="#e74c3c" stroke-width="1" />
<line x1="454.0" y1="294.3" x2="424.7" y2="328.4" stroke="#e74c3c" stroke-width="1" />
<line x1="215.9" y1="103.9" x2="236.9" y2="126.4" stroke="#e74c3c" stroke-width="1" />
<line x1="212.3" y1="107.2" x2="236.9" y2="126.4" stroke="#e74c3c" stroke-width="1" />
<line x1="233.3" y1="129.8" x2="236.9" y2="126.4" stroke="#e74c3c" stroke-width="1" />
<line x1="263.7" y1="162.5" x2="347.7" y2="245.6" stroke="#e74c3c" stroke-width="1" />
<line x1="344.1" y1="249.0" x2="347.7" y2="245.6" stroke="#e74c3c" stroke-width="1" />
<line x1="215.9" y1="103.9" x2="212.3" y2="107.2" stroke="#e74c3c" stroke-width="1" />
<line x1="212.3" y1="107.2" x2="233.3" y2="129.8" stroke="#e74c3c" stroke-width="1" />
<line x1="263.7" y1="162.5" x2="344.1" y2="249.0" stroke="#e74c3c" stroke-width="1" />
<line x1="263.7" y1="162.5" x2="267.3" y2="159.1" stroke="#e74c3c" stroke-width="1" />
<line x1="233.3" y1="129.8" x2="236.9" y2="126.4" stroke="#e74c3c" stroke-width="1" />
<line x1="267.3" y1="159.1" x2="347.7" y2="245.6" stroke="#e74c3c" stroke-width="1" />
<line x1="263.7" y1="162.5" x2="344.1" y2="249.0" stroke="#e74c3c" stroke-width="1" />
<line x1="215.9" y1="103.9" x2="236.9" y2="126.4" stroke="#e74c3c" stroke-width="1" />
<line x1="263.7" y1="162.5" x2="267.3" y2="159.1" stroke="#e74c3c" stroke-width="1" />
<line x1="212.3" y1="107.2" x2="233.3" y2="129.8" stroke="#e74c3c" stroke-width="1" />
<line x1="267.3" y1="159.1" x2="347.7" y2="245.6" stroke="#e74c3c" stroke-width="1" />
<line x1="233.3" y1="129.8" x2="236.9" y2="126.4" stroke="#e74c3c" stroke-width="1" />
<line x1="263.7" y1="162.5" x2="267.3" y2="159.1" stroke="#e74c3c" stroke-width="1" />
<line x1="593.8" y1="320.9" x2="553.9" y2="358.0" stroke="#e74c3c" stroke-width="1" />
<line x1="593.8" y1="320.9" x2="597.2" y2="324.5" stroke="#e74c3c" stroke-width="1" />
<line x1="557.2" y1="361.6" x2="597.2" y2="324.5" stroke="#e74c3c" stroke-width="1" />
<line x1="553.9" y1="358.0" x2="597.2" y2="324.5" stroke="#e74c3c" stroke-width="1" />
<line x1="553.9" y1="358.0" x2="557.2" y2="361.6" stroke="#e74c3c" stroke-width="1" />
<line x1="611.2" y1="412.4" x2="643.9" y2="381.9" stroke="#e74c3c" stroke-width="1" />
<line x1="701.3" y1="328.6" x2="704.6" y2="332.2" stroke="#e74c3c" stroke-width="1" />
<line x1="643.9" y1="381.9" x2="647.3" y2="385.6" stroke="#e74c3c" stroke-width="1" />
<line x1="676.6" y1="351.5" x2="701.3" y2="328.6" stroke="#e74c3c" stroke-width="1" />
<line x1="614.5" y1="416.0" x2="647.3" y2="385.6" stroke="#e74c3c" stroke-width="1" />
<line x1="643.9" y1="381.9" x2="647.3" y2="385.6" stroke="#e74c3c" stroke-width="1" />
<line x1="676.6" y1="351.5" x2="680.0" y2="355.2" stroke="#e74c3c" stroke-width="1" />
<line x1="676.6" y1="351.5" x2="701.3" y2="328.6" stroke="#e74c3c" stroke-width="1" />
<line x1="680.0" y1="355.2" x2="704.6" y2="332.2" stroke="#e74c3c" stroke-width="1" />
<line x1="611.2" y1="412.4" x2="643.9" y2="381.9" stroke="#e74c3c" stroke-width="1" />
<line x1="611.2" y1="412.4" x2="614.5" y2="416.0" stroke="#e74c3c" stroke-width="1" />
<line x1="680.0" y1="355.2" x2="704.6" y2="332.2" stroke="#e74c3c" stroke-width="1" />
<line x1="676.6" y1="351.5" x2="680.0" y2="355.2" stroke="#e74c3c" stroke-width="1" />
<line x1="614.5" y1="416.0" x2="647.3" y2="385.6" stroke="#e74c3c" stroke-width="1" />
<line x1="676.6" y1="351.5" x2="680.0" y2="355.2" stroke="#e74c3c" stroke-width="1" />
<line x1="611.2" y1="412.4" x2="647.3" y2="385.6" stroke="#e74c3c" stroke-width="1" />
<line x1="676.6" y1="351.5" x2="704.6" y2="332.2" stroke="#e74c3c" stroke-width="1" />
<line x1="643.9" y1="381.9" x2="647.3" y2="385.6" stroke="#e74c3c" stroke-width="1" />
<line x1="482.3" y1="268.0" x2="479.4" y2="270.7" stroke="#e74c3c" stroke-width="1" />
<line x1="475.8" y1="274.0" x2="479.4" y2="270.7" stroke="#e74c3c" stroke-width="1" />
<line x1="479.2" y1="277.7" x2="485.7" y2="271.6" stroke="#e74c3c" stroke-width="1" />
<line x1="515.8" y1="236.9" x2="511.4" y2="240.9" stroke="#e74c3c" stroke-width="1" />
<line x1="479.2" y1="277.7" x2="475.8" y2="274.0" stroke="#e74c3c" stroke-width="1" />
<line x1="482.8" y1="274.3" x2="479.2" y2="277.7" stroke="#e74c3c" stroke-width="1" />
<line x1="519.1" y1="240.5" x2="514.8" y2="244.6" stroke="#e74c3c" stroke-width="1" />
<line x1="479.2" y1="277.7" x2="475.8" y2="274.0" stroke="#e74c3c" stroke-width="1" />
<line x1="482.8" y1="274.3" x2="479.4" y2="270.7" stroke="#e74c3c" stroke-width="1" />
<line x1="514.8" y1="244.6" x2="511.4" y2="240.9" stroke="#e74c3c" stroke-width="1" />
<line x1="515.8" y1="236.9" x2="514.8" y2="244.6" stroke="#e74c3c" stroke-width="1" />
<line x1="479.2" y1="277.7" x2="482.3" y2="268.0" stroke="#e74c3c" stroke-width="1" />
<line x1="482.3" y1="268.0" x2="479.4" y2="270.7" stroke="#e74c3c" stroke-width="1" />
<line x1="485.7" y1="271.6" x2="482.3" y2="268.0" stroke="#e74c3c" stroke-width="1" />
<line x1="482.8" y1="274.3" x2="479.2" y2="277.7" stroke="#e74c3c" stroke-width="1" />
<line x1="514.8" y1="244.6" x2="511.4" y2="240.9" stroke="#e74c3c" stroke-width="1" />
<line x1="482.8" y1="274.3" x2="485.7" y2="271.6" stroke="#e74c3c" stroke-width="1" />
<line x1="482.3" y1="268.0" x2="475.8" y2="274.0" stroke="#e74c3c" stroke-width="1" />
<line x1="479.2" y1="277.7" x2="475.8" y2="274.0" stroke="#e74c3c" stroke-width="1" />
<line x1="475.8" y1="274.0" x2="479.4" y2="270.7" stroke="#e74c3c" stroke-width="1" />
<line x1="485.7" y1="271.6" x2="482.3" y2="268.0" stroke="#e74c3c" stroke-width="1" />
<line x1="515.8" y1="236.9" x2="511.4" y2="240.9" stroke="#e74c3c" stroke-width="1" />
<line x1="514.8" y1="244.6" x2="511.4" y2="240.9" stroke="#e74c3c" stroke-width="1" />
<line x1="482.8" y1="274.3" x2="485.7" y2="271.6" stroke="#e74c3c" stroke-width="1" />
<line x1="519.1" y1="240.5" x2="515.8" y2="236.9" stroke="#e74c3c" stroke-width="1" />
<line x1="519.1" y1="240.5" x2="514.8" y2="244.6" stroke="#e74c3c" stroke-width="1" />
<line x1="479.2" y1="277.7" x2="479.4" y2="270.7" stroke="#e74c3c" stroke-width="1" />
<line x1="485.7" y1="271.6" x2="482.3" y2="268.0" stroke="#e74c3c" stroke-width="1" />
<line x1="413.6" y1="487.7" x2="410.2" y2="484.0" stroke="#e74c3c" stroke-width="1" />
<line x1="385.6" y1="513.7" x2="382.3" y2="510.0" stroke="#e74c3c" stroke-width="1" />
<line x1="386.4" y1="513.0" x2="383.0" y2="509.4" stroke="#e74c3c" stroke-width="1" />
<line x1="414.7" y1="486.6" x2="411.3" y2="483.0" stroke="#e74c3c" stroke-width="1" />
<line x1="386.4" y1="513.0" x2="382.3" y2="510.0" stroke="#e74c3c" stroke-width="1" />
<line x1="414.7" y1="486.6" x2="410.2" y2="484.0" stroke="#e74c3c" stroke-width="1" />
<line x1="477.4" y1="452.1" x2="480.8" y2="455.7" stroke="#e74c3c" stroke-width="1" />
<line x1="480.8" y1="455.7" x2="433.5" y2="499.6" stroke="#e74c3c" stroke-width="1" />
<line x1="430.2" y1="496.0" x2="426.5" y2="499.4" stroke="#e74c3c" stroke-width="1" />
<line x1="430.2" y1="496.0" x2="433.5" y2="499.6" stroke="#e74c3c" stroke-width="1" />
<line x1="477.4" y1="452.1" x2="430.2" y2="496.0" stroke="#e74c3c" stroke-width="1" />
<line x1="477.4" y1="452.1" x2="430.2" y2="496.0" stroke="#e74c3c" stroke-width="1" />
<line x1="433.5" y1="499.6" x2="430.2" y2="496.0" stroke="#e74c3c" stroke-width="1" />
<line x1="430.2" y1="496.0" x2="433.5" y2="499.6" stroke="#e74c3c" stroke-width="1" />
<line x1="480.8" y1="455.7" x2="433.5" y2="499.6" stroke="#e74c3c" stroke-width="1" />
<line x1="433.5" y1="499.6" x2="426.5" y2="499.4" stroke="#e74c3c" stroke-width="1" />
<line x1="426.5" y1="499.4" x2="429.9" y2="503.0" stroke="#e74c3c" stroke-width="1" />
<line x1="433.5" y1="499.6" x2="429.9" y2="503.0" stroke="#e74c3c" stroke-width="1" />
<line x1="480.8" y1="455.7" x2="430.2" y2="496.0" stroke="#e74c3c" stroke-width="1" />
<line x1="430.2" y1="496.0" x2="426.5" y2="499.4" stroke="#e74c3c" stroke-width="1" />
<line x1="426.5" y1="499.4" x2="411.3" y2="483.0" stroke="#e74c3c" stroke-width="1" />
<line x1="430.2" y1="496.0" x2="415.0" y2="479.6" stroke="#e74c3c" stroke-width="1" />
<line x1="411.3" y1="483.0" x2="415.0" y2="479.6" stroke="#e74c3c" stroke-width="1" />
<line x1="426.5" y1="499.4" x2="415.0" y2="479.6" stroke="#e74c3c" stroke-width="1" />
<line x1="514.3" y1="499.0" x2="519.4" y2="504.5" stroke="#e74c3c" stroke-width="1" />
<line x1="438.0" y1="570.0" x2="519.4" y2="504.5" stroke="#e74c3c" stroke-width="1" />
<line x1="514.3" y1="499.0" x2="438.0" y2="570.0" stroke="#e74c3c" stroke-width="1" />
<line x1="443.1" y1="575.4" x2="519.4" y2="504.5" stroke="#e74c3c" stroke-width="1" />
<line x1="438.0" y1="570.0" x2="443.1" y2="575.4" stroke="#e74c3c" stroke-width="1" />
<line x1="391.2" y1="359.4" x2="411.5" y2="381.2" stroke="#e74c3c" stroke-width="1" />
<line x1="514.3" y1="499.0" x2="477.1" y2="459.1" stroke="#e74c3c" stroke-width="1" />
<line x1="387.6" y1="362.8" x2="411.5" y2="381.2" stroke="#e74c3c" stroke-width="1" />
<line x1="517.9" y1="495.7" x2="480.8" y2="455.7" stroke="#e74c3c" stroke-width="1" />
<line x1="407.9" y1="384.6" x2="411.5" y2="381.2" stroke="#e74c3c" stroke-width="1" />
<line x1="517.9" y1="495.7" x2="514.3" y2="499.0" stroke="#e74c3c" stroke-width="1" />
<line x1="458.6" y1="439.1" x2="477.4" y2="452.1" stroke="#e74c3c" stroke-width="1" />
<line x1="473.8" y1="455.5" x2="477.4" y2="452.1" stroke="#e74c3c" stroke-width="1" />
<line x1="391.2" y1="359.4" x2="387.6" y2="362.8" stroke="#e74c3c" stroke-width="1" />
<line x1="387.6" y1="362.8" x2="407.9" y2="384.6" stroke="#e74c3c" stroke-width="1" />
<line x1="458.6" y1="439.1" x2="473.8" y2="455.5" stroke="#e74c3c" stroke-width="1" />
<line x1="458.6" y1="439.1" x2="462.2" y2="435.7" stroke="#e74c3c" stroke-width="1" />
<line x1="480.8" y1="455.7" x2="477.1" y2="459.1" stroke="#e74c3c" stroke-width="1" />
<line x1="407.9" y1="384.6" x2="411.5" y2="381.2" stroke="#e74c3c" stroke-width="1" />
<line x1="462.2" y1="435.7" x2="477.4" y2="452.1" stroke="#e74c3c" stroke-width="1" />
<line x1="458.6" y1="439.1" x2="473.8" y2="455.5" stroke="#e74c3c" stroke-width="1" />
<line x1="391.2" y1="359.4" x2="411.5" y2="381.2" stroke="#e74c3c" stroke-width="1" />
<line x1="458.6" y1="439.1" x2="462.2" y2="435.7" stroke="#e74c3c" stroke-width="1" />
<line x1="387.6" y1="362.8" x2="407.9" y2="384.6" stroke="#e74c3c" stroke-width="1" />
<line x1="480.8" y1="455.7" x2="514.3" y2="499.0" stroke="#e74c3c" stroke-width="1" />
<line x1="462.2" y1="435.7" x2="477.4" y2="452.1" stroke="#e74c3c" stroke-width="1" />
<line x1="407.9" y1="384.6" x2="411.5" y2="381.2" stroke="#e74c3c" stroke-width="1" />
<line x1="458.6" y1="439.1" x2="462.2" y2="435.7" stroke="#e74c3c" stroke-width="1" />
<line x1="548.9" y1="279.8" x2="606.3" y2="226.5" stroke="#e74c3c" stroke-width="1" />
<line x1="548.9" y1="279.8" x2="602.9" y2="222.8" stroke="#e74c3c" stroke-width="1" />
<line x1="548.9" y1="279.8" x2="545.5" y2="276.2" stroke="#e74c3c" stroke-width="1" />
<line x1="545.5" y1="276.2" x2="602.9" y2="222.8" stroke="#e74c3c" stroke-width="1" />
<line x1="606.3" y1="226.5" x2="602.9" y2="222.8" stroke="#e74c3c" stroke-width="1" />
<line x1="513.0" y1="314.0" x2="491.2" y2="334.3" stroke="#e74c3c" stroke-width="1" />
<line x1="513.0" y1="314.0" x2="496.2" y2="339.7" stroke="#e74c3c" stroke-width="1" />
<line x1="491.2" y1="334.3" x2="496.2" y2="339.7" stroke="#e74c3c" stroke-width="1" />
<line x1="496.2" y1="339.7" x2="518.0" y2="319.5" stroke="#e74c3c" stroke-width="1" />
<line x1="513.0" y1="314.0" x2="518.0" y2="319.5" stroke="#e74c3c" stroke-width="1" />
<line x1="365.1" y1="155.0" x2="479.2" y2="277.7" stroke="#e74c3c" stroke-width="1" />
<line x1="365.1" y1="155.0" x2="482.8" y2="274.3" stroke="#e74c3c" stroke-width="1" />
<line x1="368.7" y1="151.6" x2="482.8" y2="274.3" stroke="#e74c3c" stroke-width="1" />
<line x1="365.1" y1="155.0" x2="368.7" y2="151.6" stroke="#e74c3c" stroke-width="1" />
<line x1="479.2" y1="277.7" x2="482.8" y2="274.3" stroke="#e74c3c" stroke-width="1" />
<line x1="515.5" y1="243.9" x2="519.1" y2="240.5" stroke="#e74c3c" stroke-width="1" />
<line x1="519.1" y1="240.5" x2="545.8" y2="269.2" stroke="#e74c3c" stroke-width="1" />
<line x1="515.5" y1="243.9" x2="542.2" y2="272.6" stroke="#e74c3c" stroke-width="1" />
<line x1="545.8" y1="269.2" x2="542.2" y2="272.6" stroke="#e74c3c" stroke-width="1" />
<line x1="519.1" y1="240.5" x2="542.2" y2="272.6" stroke="#e74c3c" stroke-width="1" />
<line x1="531.3" y1="483.2" x2="514.3" y2="499.0" stroke="#e74c3c" stroke-width="1" />
<line x1="514.3" y1="499.0" x2="536.4" y2="488.7" stroke="#e74c3c" stroke-width="1" />
<line x1="536.4" y1="488.7" x2="519.4" y2="504.5" stroke="#e74c3c" stroke-width="1" />
<line x1="531.3" y1="483.2" x2="536.4" y2="488.7" stroke="#e74c3c" stroke-width="1" />
<line x1="514.3" y1="499.0" x2="519.4" y2="504.5" stroke="#e74c3c" stroke-width="1" />
<line x1="552.5" y1="276.5" x2="593.8" y2="320.9" stroke="#e74c3c" stroke-width="1" />
<line x1="548.9" y1="279.8" x2="590.2" y2="324.2" stroke="#e74c3c" stroke-width="1" />
<line x1="593.8" y1="320.9" x2="590.2" y2="324.2" stroke="#e74c3c" stroke-width="1" />
<line x1="552.5" y1="276.5" x2="548.9" y2="279.8" stroke="#e74c3c" stroke-width="1" />
<line x1="552.5" y1="276.5" x2="590.2" y2="324.2" stroke="#e74c3c" stroke-width="1" />
<line x1="557.2" y1="361.6" x2="560.9" y2="358.3" stroke="#e74c3c" stroke-width="1" />
<line x1="560.9" y1="358.3" x2="614.5" y2="416.0" stroke="#e74c3c" stroke-width="1" />
<line x1="557.2" y1="361.6" x2="610.9" y2="419.4" stroke="#e74c3c" stroke-width="1" />
<line x1="614.5" y1="416.0" x2="610.9" y2="419.4" stroke="#e74c3c" stroke-width="1" />
<line x1="560.9" y1="358.3" x2="610.9" y2="419.4" stroke="#e74c3c" stroke-width="1" />
<line x1="270.7" y1="317.2" x2="267.1" y2="320.6" stroke="#e74c3c" stroke-width="1" />
<line x1="267.1" y1="320.6" x2="236.7" y2="287.9" stroke="#e74c3c" stroke-width="1" />
<line x1="270.7" y1="317.2" x2="240.3" y2="284.5" stroke="#e74c3c" stroke-width="1" />
<line x1="236.7" y1="287.9" x2="240.3" y2="284.5" stroke="#e74c3c" stroke-width="1" />
<line x1="270.7" y1="317.2" x2="236.7" y2="287.9" stroke="#e74c3c" stroke-width="1" />
<line x1="629.3" y1="805.6" x2="644.2" y2="791.8" stroke="#e74c3c" stroke-width="1" />
<line x1="629.3" y1="805.6" x2="716.3" y2="899.2" stroke="#e74c3c" stroke-width="1" />
<line x1="717.4" y1="870.5" x2="644.2" y2="791.8" stroke="#e74c3c" stroke-width="1" />
<line x1="629.3" y1="805.6" x2="717.4" y2="870.5" stroke="#e74c3c" stroke-width="1" />
<line x1="716.3" y1="899.2" x2="717.4" y2="870.5" stroke="#e74c3c" stroke-width="1" />
<line x1="631.6" y1="361.5" x2="628.0" y2="364.8" stroke="#e74c3c" stroke-width="1" />
<line x1="628.0" y1="364.8" x2="593.6" y2="327.9" stroke="#e74c3c" stroke-width="1" />
<line x1="631.6" y1="361.5" x2="597.2" y2="324.5" stroke="#e74c3c" stroke-width="1" />
<line x1="593.6" y1="327.9" x2="597.2" y2="324.5" stroke="#e74c3c" stroke-width="1" />
<line x1="628.0" y1="364.8" x2="597.2" y2="324.5" stroke="#e74c3c" stroke-width="1" />
<line x1="332.2" y1="390.6" x2="299.5" y2="421.0" stroke="#e74c3c" stroke-width="1" />
<line x1="301.2" y1="422.8" x2="333.9" y2="392.4" stroke="#e74c3c" stroke-width="1" />
<line x1="332.2" y1="390.6" x2="301.2" y2="422.8" stroke="#e74c3c" stroke-width="1" />
<line x1="421.3" y1="324.7" x2="424.7" y2="328.4" stroke="#e74c3c" stroke-width="1" />
<line x1="421.3" y1="324.7" x2="307.9" y2="430.1" stroke="#e74c3c" stroke-width="1" />
<line x1="311.3" y1="433.7" x2="424.7" y2="328.4" stroke="#e74c3c" stroke-width="1" />
<line x1="421.3" y1="324.7" x2="311.3" y2="433.7" stroke="#e74c3c" stroke-width="1" />
<line x1="307.9" y1="430.1" x2="311.3" y2="433.7" stroke="#e74c3c" stroke-width="1" />
<line x1="643.9" y1="382.0" x2="647.5" y2="378.6" stroke="#2c3e50" stroke-width="1" />
<line x1="593.6" y1="327.9" x2="597.2" y2="324.5" stroke="#2c3e50" stroke-width="1" />
<line x1="643.9" y1="382.0" x2="593.6" y2="327.9" stroke="#2c3e50" stroke-width="1" />
<line x1="647.5" y1="378.6" x2="593.6" y2="327.9" stroke="#2c3e50" stroke-width="1" />
<line x1="647.5" y1="378.6" x2="597.2" y2="324.5" stroke="#2c3e50" stroke-width="1" />
<line x1="721.1" y1="457.7" x2="717.5" y2="461.1" stroke="#2c3e50" stroke-width="1" />
<line x1="717.5" y1="461.1" x2="697.2" y2="439.3" stroke="#2c3e50" stroke-width="1" />
<line x1="721.1" y1="457.7" x2="700.8" y2="435.9" stroke="#2c3e50" stroke-width="1" />
<line x1="697.2" y1="439.3" x2="700.8" y2="435.9" stroke="#2c3e50" stroke-width="1" />
<line x1="717.5" y1="461.1" x2="700.8" y2="435.9" stroke="#2c3e50" stroke-width="1" />
<line x1="443.1" y1="575.4" x2="552.8" y2="473.4" stroke="#2c3e50" stroke-width="1" />
<line x1="443.1" y1="575.4" x2="438.0" y2="570.0" stroke="#2c3e50" stroke-width="1" />
<line x1="552.8" y1="473.4" x2="547.7" y2="468.0" stroke="#2c3e50" stroke-width="1" />
<line x1="438.0" y1="570.0" x2="547.7" y2="468.0" stroke="#2c3e50" stroke-width="1" />
<line x1="443.1" y1="575.4" x2="547.7" y2="468.0" stroke="#2c3e50" stroke-width="1" />
<line x1="582.9" y1="513.1" x2="660.9" y2="589.7" stroke="#2c3e50" stroke-width="1" />
<line x1="694.7" y1="626.1" x2="718.4" y2="651.5" stroke="#2c3e50" stroke-width="1" />
<line x1="714.7" y1="654.9" x2="718.4" y2="651.5" stroke="#2c3e50" stroke-width="1" />
<line x1="657.3" y1="593.1" x2="660.9" y2="589.7" stroke="#2c3e50" stroke-width="1" />
<line x1="691.1" y1="629.5" x2="718.4" y2="651.5" stroke="#2c3e50" stroke-width="1" />
<line x1="582.9" y1="513.1" x2="657.3" y2="593.1" stroke="#2c3e50" stroke-width="1" />
<line x1="550.8" y1="478.6" x2="554.5" y2="475.2" stroke="#2c3e50" stroke-width="1" />
<line x1="582.9" y1="513.1" x2="586.6" y2="509.8" stroke="#2c3e50" stroke-width="1" />
<line x1="586.6" y1="509.8" x2="660.9" y2="589.7" stroke="#2c3e50" stroke-width="1" />
<line x1="550.8" y1="478.6" x2="556.2" y2="477.1" stroke="#2c3e50" stroke-width="1" />
<line x1="691.1" y1="629.5" x2="714.7" y2="654.9" stroke="#2c3e50" stroke-width="1" />
<line x1="554.5" y1="475.2" x2="556.2" y2="477.1" stroke="#2c3e50" stroke-width="1" />
<line x1="552.5" y1="480.4" x2="556.2" y2="477.1" stroke="#2c3e50" stroke-width="1" />
<line x1="691.1" y1="629.5" x2="694.7" y2="626.1" stroke="#2c3e50" stroke-width="1" />
<line x1="550.8" y1="478.6" x2="552.5" y2="480.4" stroke="#2c3e50" stroke-width="1" />
<line x1="711.4" y1="651.2" x2="605.3" y2="749.9" stroke="#2c3e50" stroke-width="1" />
<line x1="711.4" y1="651.2" x2="714.7" y2="654.9" stroke="#2c3e50" stroke-width="1" />
<line x1="605.3" y1="749.9" x2="608.6" y2="753.5" stroke="#2c3e50" stroke-width="1" />
<line x1="714.7" y1="654.9" x2="608.6" y2="753.5" stroke="#2c3e50" stroke-width="1" />
<line x1="711.4" y1="651.2" x2="608.6" y2="753.5" stroke="#2c3e50" stroke-width="1" />
<line x1="663.0" y1="511.8" x2="659.3" y2="515.2" stroke="#2c3e50" stroke-width="1" />
<line x1="659.3" y1="515.2" x2="635.7" y2="489.7" stroke="#2c3e50" stroke-width="1" />
<line x1="663.0" y1="511.8" x2="639.3" y2="486.4" stroke="#2c3e50" stroke-width="1" />
<line x1="635.7" y1="489.7" x2="639.3" y2="486.4" stroke="#2c3e50" stroke-width="1" />
<line x1="659.3" y1="515.2" x2="639.3" y2="486.4" stroke="#2c3e50" stroke-width="1" />
<line x1="633.7" y1="567.7" x2="527.6" y2="666.3" stroke="#2c3e50" stroke-width="1" />
<line x1="633.7" y1="567.7" x2="637.0" y2="571.3" stroke="#2c3e50" stroke-width="1" />
<line x1="527.6" y1="666.3" x2="530.9" y2="670.0" stroke="#2c3e50" stroke-width="1" />
<line x1="637.0" y1="571.3" x2="530.9" y2="670.0" stroke="#2c3e50" stroke-width="1" />
<line x1="633.7" y1="567.7" x2="530.9" y2="670.0" stroke="#2c3e50" stroke-width="1" />
<line x1="639.1" y1="493.4" x2="599.4" y2="523.5" stroke="#2c3e50" stroke-width="1" />
<line x1="635.7" y1="489.7" x2="599.4" y2="523.5" stroke="#2c3e50" stroke-width="1" />
<line x1="639.1" y1="493.4" x2="635.7" y2="489.7" stroke="#2c3e50" stroke-width="1" />
<line x1="602.7" y1="527.1" x2="599.4" y2="523.5" stroke="#2c3e50" stroke-width="1" />
<line x1="639.1" y1="493.4" x2="602.7" y2="527.1" stroke="#2c3e50" stroke-width="1" />
<line x1="687.3" y1="421.4" x2="741.1" y2="371.4" stroke="#2c3e50" stroke-width="1" />
<line x1="687.3" y1="421.4" x2="683.9" y2="417.8" stroke="#2c3e50" stroke-width="1" />
<line x1="741.1" y1="371.4" x2="737.7" y2="367.8" stroke="#2c3e50" stroke-width="1" />
<line x1="683.9" y1="417.8" x2="737.7" y2="367.8" stroke="#2c3e50" stroke-width="1" />
<line x1="687.3" y1="421.4" x2="737.7" y2="367.8" stroke="#2c3e50" stroke-width="1" />
<line x1="717.5" y1="461.1" x2="714.1" y2="457.5" stroke="#2c3e50" stroke-width="1" />
<line x1="746.5" y1="434.1" x2="743.2" y2="430.5" stroke="#2c3e50" stroke-width="1" />
<line x1="774.9" y1="407.7" x2="743.2" y2="430.5" stroke="#2c3e50" stroke-width="1" />
<line x1="774.9" y1="407.7" x2="771.5" y2="404.1" stroke="#2c3e50" stroke-width="1" />
<line x1="771.5" y1="404.1" x2="743.2" y2="430.5" stroke="#2c3e50" stroke-width="1" />
<line x1="714.1" y1="457.5" x2="717.7" y2="454.1" stroke="#2c3e50" stroke-width="1" />
<line x1="721.1" y1="457.7" x2="717.7" y2="454.1" stroke="#2c3e50" stroke-width="1" />
<line x1="774.9" y1="407.7" x2="746.5" y2="434.1" stroke="#2c3e50" stroke-width="1" />
<line x1="721.1" y1="457.7" x2="714.1" y2="457.5" stroke="#2c3e50" stroke-width="1" />
<line x1="717.5" y1="461.1" x2="721.1" y2="457.7" stroke="#2c3e50" stroke-width="1" />
<line x1="670.6" y1="332.0" x2="631.6" y2="361.5" stroke="#2c3e50" stroke-width="1" />
<line x1="670.6" y1="332.0" x2="667.2" y2="328.4" stroke="#2c3e50" stroke-width="1" />
<line x1="635.0" y1="365.1" x2="631.6" y2="361.5" stroke="#2c3e50" stroke-width="1" />
<line x1="670.6" y1="332.0" x2="635.0" y2="365.1" stroke="#2c3e50" stroke-width="1" />
<line x1="667.2" y1="328.4" x2="631.6" y2="361.5" stroke="#2c3e50" stroke-width="1" />
<line x1="682.8" y1="352.5" x2="686.5" y2="349.1" stroke="#2c3e50" stroke-width="1" />
<line x1="682.8" y1="352.5" x2="666.9" y2="335.4" stroke="#2c3e50" stroke-width="1" />
<line x1="670.6" y1="332.0" x2="666.9" y2="335.4" stroke="#2c3e50" stroke-width="1" />
<line x1="686.5" y1="349.1" x2="666.9" y2="335.4" stroke="#2c3e50" stroke-width="1" />
<line x1="686.5" y1="349.1" x2="670.6" y2="332.0" stroke="#2c3e50" stroke-width="1" />
<line x1="659.3" y1="515.2" x2="669.8" y2="524.3" stroke="#2c3e50" stroke-width="1" />
<line x1="659.3" y1="515.2" x2="668.7" y2="525.3" stroke="#2c3e50" stroke-width="1" />
<line x1="699.1" y1="558.0" x2="742.9" y2="602.9" stroke="#2c3e50" stroke-width="1" />
<line x1="700.2" y1="557.0" x2="742.9" y2="602.9" stroke="#2c3e50" stroke-width="1" />
<line x1="660.4" y1="514.2" x2="669.8" y2="524.3" stroke="#2c3e50" stroke-width="1" />
<line x1="699.1" y1="558.0" x2="741.8" y2="603.9" stroke="#2c3e50" stroke-width="1" />
<line x1="704.6" y1="332.2" x2="686.5" y2="349.1" stroke="#2c3e50" stroke-width="1" />
<line x1="704.6" y1="332.2" x2="701.3" y2="328.6" stroke="#2c3e50" stroke-width="1" />
<line x1="686.5" y1="349.1" x2="683.1" y2="345.5" stroke="#2c3e50" stroke-width="1" />
<line x1="701.3" y1="328.6" x2="683.1" y2="345.5" stroke="#2c3e50" stroke-width="1" />
<line x1="704.6" y1="332.2" x2="683.1" y2="345.5" stroke="#2c3e50" stroke-width="1" />
<line x1="697.2" y1="439.3" x2="678.0" y2="418.7" stroke="#2c3e50" stroke-width="1" />
<line x1="654.6" y1="386.2" x2="638.3" y2="368.7" stroke="#2c3e50" stroke-width="1" />
<line x1="700.8" y1="435.9" x2="681.6" y2="415.3" stroke="#2c3e50" stroke-width="1" />
<line x1="634.7" y1="372.1" x2="638.3" y2="368.7" stroke="#2c3e50" stroke-width="1" />
<line x1="678.0" y1="418.7" x2="681.6" y2="415.3" stroke="#2c3e50" stroke-width="1" />
<line x1="697.2" y1="439.3" x2="700.8" y2="435.9" stroke="#2c3e50" stroke-width="1" />
<line x1="651.0" y1="389.6" x2="634.7" y2="372.1" stroke="#2c3e50" stroke-width="1" />
<line x1="654.6" y1="386.2" x2="634.7" y2="372.1" stroke="#2c3e50" stroke-width="1" />
<line x1="697.2" y1="439.3" x2="681.6" y2="415.3" stroke="#2c3e50" stroke-width="1" />
<line x1="651.0" y1="389.6" x2="654.6" y2="386.2" stroke="#2c3e50" stroke-width="1" />
<line x1="697.4" y1="339.0" x2="699.2" y2="337.3" stroke="#2c3e50" stroke-width="1" />
<line x1="697.4" y1="339.0" x2="730.4" y2="374.5" stroke="#2c3e50" stroke-width="1" />
<line x1="732.3" y1="372.8" x2="699.2" y2="337.3" stroke="#2c3e50" stroke-width="1" />
<line x1="697.4" y1="339.0" x2="732.3" y2="372.8" stroke="#2c3e50" stroke-width="1" />
<line x1="730.4" y1="374.5" x2="732.3" y2="372.8" stroke="#2c3e50" stroke-width="1" />
<line x1="733.8" y1="378.2" x2="735.6" y2="376.5" stroke="#2c3e50" stroke-width="1" />
<line x1="735.6" y1="376.5" x2="766.0" y2="409.2" stroke="#2c3e50" stroke-width="1" />
<line x1="733.8" y1="378.2" x2="764.2" y2="410.9" stroke="#2c3e50" stroke-width="1" />
<line x1="766.0" y1="409.2" x2="764.2" y2="410.9" stroke="#2c3e50" stroke-width="1" />
<line x1="735.6" y1="376.5" x2="764.2" y2="410.9" stroke="#2c3e50" stroke-width="1" />
<line x1="642.7" y1="490.0" x2="696.9" y2="439.0" stroke="#2c3e50" stroke-width="1" />
<line x1="693.6" y1="435.4" x2="639.3" y2="486.4" stroke="#2c3e50" stroke-width="1" />
<line x1="696.9" y1="439.0" x2="693.6" y2="435.4" stroke="#2c3e50" stroke-width="1" />
<line x1="642.7" y1="490.0" x2="639.3" y2="486.4" stroke="#2c3e50" stroke-width="1" />
<line x1="693.6" y1="435.4" x2="635.7" y2="489.7" stroke="#2c3e50" stroke-width="1" />
<line x1="635.7" y1="489.7" x2="639.3" y2="486.4" stroke="#2c3e50" stroke-width="1" />
<line x1="696.9" y1="439.0" x2="639.3" y2="486.4" stroke="#2c3e50" stroke-width="1" />
<rect x="10" y="10" width="12" height="12" fill="#2c3e50"/><text x="28" y="21" font-size="12" fill="#333">First Floor</text>
<rect x="10" y="30" width="12" height="12" fill="#e74c3c"/><text x="28" y="41" font-size="12" fill="#333">Ground Floor</text>
</svg>