  0
SECTION
  2
HEADER
  9
$ACADVER
  1
AC1024
  9
$ACADMAINTVER
 70
6
  9
$DWGCODEPAGE
  3
ANSI_1252
  9
$LASTSAVEDBY
  1
ezdxf
  9
$INSBASE
 10
0.0
 20
0.0
 30
0.0
  9
$EXTMIN
 10
1e+20
 20
1e+20
 30
1e+20
  9
$EXTMAX
 10
-1e+20
 20
-1e+20
 30
-1e+20
  9
$LIMMIN
 10
0.0
 20
0.0
  9
$LIMMAX
 10
420.0
 20
297.0
  9
$ORTHOMODE
 70
0
  9
$REGENMODE
 70
1
  9
$FILLMODE
 70
1
  9
$QTEXTMODE
 70
0
  9
$MIRRTEXT
 70
1
  9
$LTSCALE
 40
1.0
  9
$ATTMODE
 70
1
  9
$TEXTSIZE
 40
2.5
  9
$TRACEWID
 40
1.0
  9
$TEXTSTYLE
  7
Standard
  9
$CLAYER
  8
0
  9
$CELTYPE
  6
ByLayer
  9
$CECOLOR
 62
256
  9
$CELTSCALE
 40
1.0
  9
$DISPSILH
 70
0
  9
$DIMSCALE
 40
1.0
  9
$DIMASZ
 40
2.5
  9
$DIMEXO
 40
0.625
  9
$DIMDLI
 40
3.75
  9
$DIMRND
 40
0.0
  9
$DIMDLE
 40
0.0
  9
$DIMEXE
 40
1.25
  9
$DIMTP
 40
0.0
  9
$DIMTM
 40
0.0
  9
$DIMTXT
 40
2.5
  9
$DIMCEN
 40
2.5
  9
$DIMTSZ
 40
0.0
  9
$DIMTOL
 70
0
  9
$DIMLIM
 70
0
  9
$DIMTIH
 70
0
  9
$DIMTOH
 70
0
  9
$DIMSE1
 70
0
  9
$DIMSE2
 70
0
  9
$DIMTAD
 70
1
  9
$DIMZIN
 70
8
  9
$DIMBLK
  1

  9
$DIMASO
 70
1
  9
$DIMSHO
 70
1
  9
$DIMPOST
  1

  9
$DIMAPOST
  1

  9
$DIMALT
 70
0
  9
$DIMALTD
 70
3
  9
$DIMALTF
 40
0.03937007874
  9
$DIMLFAC
 40
1.0
  9
$DIMTOFL
 70
1
  9
$DIMTVP
 40
0.0
  9
$DIMTIX
 70
0
  9
$DIMSOXD
 70
0
  9
$DIMSAH
 70
0
  9
$DIMBLK1
  1

  9
$DIMBLK2
  1

  9
$DIMSTYLE
  2
ISO-25
  9
$DIMCLRD
 70
0
  9
$DIMCLRE
 70
0
  9
$DIMCLRT
 70
0
  9
$DIMTFAC
 40
1.0
  9
$DIMGAP
 40
0.625
  9
$DIMJUST
 70
0
  9
$DIMSD1
 70
0
  9
$DIMSD2
 70
0
  9
$DIMTOLJ
 70
0
  9
$DIMTZIN
 70
8
  9
$DIMALTZ
 70
0
  9
$DIMALTTZ
 70
0
  9
$DIMUPT
 70
0
  9
$DIMDEC
 70
2
  9
$DIMTDEC
 70
2
  9
$DIMALTU
 70
2
  9
$DIMALTTD
 70
3
  9
$DIMTXSTY
  7
Standard
  9
$DIMAUNIT
 70
0
  9
$DIMADEC
 70
0
  9
$DIMALTRND
 40
0.0
  9
$DIMAZIN
 70
0
  9
$DIMDSEP
 70
44
  9
$DIMATFIT
 70
3
  9
$DIMFRAC
 70
0
  9
$DIMLDRBLK
  1

  9
$DIMLUNIT
 70
2
  9
$DIMLWD
 70
-2
  9
$DIMLWE
 70
-2
  9
$DIMTMOVE
 70
0
  9
$DIMFXL
 40
1.0
  9
$DIMFXLON
 70
0
  9
$DIMJOGANG
 40
0.785398163397
  9
$DIMTFILL
 70
0
  9
$DIMTFILLCLR
 70
0
  9
$DIMARCSYM
 70
0
  9
$DIMLTYPE
  6

  9
$DIMLTEX1
  6

  9
$DIMLTEX2
  6

  9
$DIMTXTDIRECTION
 70
0
  9
$LUNITS
 70
2
  9
$LUPREC
 70
4
  9
$SKETCHINC
 40
1.0
  9
$FILLETRAD
 40
10.0
  9
$AUNITS
 70
0
  9
$AUPREC
 70
2
  9
$MENU
  1
.
  9
$ELEVATION
 40
0.0
  9
$PELEVATION
 40
0.0
  9
$THICKNESS
 40
0.0
  9
$LIMCHECK
 70
0
  9
$CHAMFERA
 40
0.0
  9
$CHAMFERB
 40
0.0
  9
$CHAMFERC
 40
0.0
  9
$CHAMFERD
 40
0.0
  9
$SKPOLY
 70
0
  9
$TDCREATE
 40
2461199.7985416665
  9
$TDUCREATE
 40
2458532.153996898
  9
$TDUPDATE
 40
2461199.7985416665
  9
$TDUUPDATE
 40
2458532.1544311
  9
$TDINDWG
 40
0.0
  9
$TDUSRTIMER
 40
0.0
  9
$USRTIMER
 70
1
  9
$ANGBASE
 50
0.0
  9
$ANGDIR
 70
0
  9
$PDMODE
 70
0
  9
$PDSIZE
 40
0.0
  9
$PLINEWID
 40
0.0
  9
$SPLFRAME
 70
0
  9
$SPLINETYPE
 70
6
  9
$SPLINESEGS
 70
8
  9
$HANDSEED
  5
1CF
  9
$SURFTAB1
 70
6
  9
$SURFTAB2
 70
6
  9
$SURFTYPE
 70
6
  9
$SURFU
 70
6
  9
$SURFV
 70
6
  9
$UCSBASE
  2

  9
$UCSNAME
  2

  9
$UCSORG
 10
0.0
 20
0.0
 30
0.0
  9
$UCSXDIR
 10
1.0
 20
0.0
 30
0.0
  9
$UCSYDIR
 10
0.0
 20
1.0
 30
0.0
  9
$UCSORTHOREF
  2

  9
$UCSORTHOVIEW
 70
0
  9
$UCSORGTOP
 10
0.0
 20
0.0
 30
0.0
  9
$UCSORGBOTTOM
 10
0.0
 20
0.0
 30
0.0
  9
$UCSORGLEFT
 10
0.0
 20
0.0
 30
0.0
  9
$UCSORGRIGHT
 10
0.0
 20
0.0
 30
0.0
  9
$UCSORGFRONT
 10
0.0
 20
0.0
 30
0.0
  9
$UCSORGBACK
 10
0.0
 20
0.0
 30
0.0
  9
$PUCSBASE
  2

  9
$PUCSNAME
  2

  9
$PUCSORG
 10
0.0
 20
0.0
 30
0.0
  9
$PUCSXDIR
 10
1.0
 20
0.0
 30
0.0
  9
$PUCSYDIR
 10
0.0
 20
1.0
 30
0.0
  9
$PUCSORTHOREF
  2

  9
$PUCSORTHOVIEW
 70
0
  9
$PUCSORGTOP
 10
0.0
 20
0.0
 30
0.0
  9
$PUCSORGBOTTOM
 10
0.0
 20
0.0
 30
0.0
  9
$PUCSORGLEFT
 10
0.0
 20
0.0
 30
0.0
  9
$PUCSORGRIGHT
 10
0.0
 20
0.0
 30
0.0
  9
$PUCSORGFRONT
 10
0.0
 20
0.0
 30
0.0
  9
$PUCSORGBACK
 10
0.0
 20
0.0
 30
0.0
  9
$USERI1
 70
0
  9
$USERI2
 70
0
  9
$USERI3
 70
0
  9
$USERI4
 70
0
  9
$USERI5
 70
0
  9
$USERR1
 40
0.0
  9
$USERR2
 40
0.0
  9
$USERR3
 40
0.0
  9
$USERR4
 40
0.0
  9
$USERR5
 40
0.0
  9
$WORLDVIEW
 70
1
  9
$SHADEDGE
 70
3
  9
$SHADEDIF
 70
70
  9
$TILEMODE
 70
1
  9
$MAXACTVP
 70
64
  9
$PINSBASE
 10
0.0
 20
0.0
 30
0.0
  9
$PLIMCHECK
 70
0
  9
$PEXTMIN
 10
1e+20
 20
1e+20
 30
1e+20
  9
$PEXTMAX
 10
-1e+20
 20
-1e+20
 30
-1e+20
  9
$PLIMMIN
 10
0.0
 20
0.0
  9
$PLIMMAX
 10
420.0
 20
297.0
  9
$UNITMODE
 70
0
  9
$VISRETAIN
 70
1
  9
$PLINEGEN
 70
0
  9
$PSLTSCALE
 70
1
  9
$TREEDEPTH
 70
3020
  9
$CMLSTYLE
  2
Standard
  9
$CMLJUST
 70
0
  9
$CMLSCALE
 40
20.0
  9
$PROXYGRAPHICS
 70
1
  9
$MEASUREMENT
 70
1
  9
$CELWEIGHT
370
-1
  9
$ENDCAPS
280
0
  9
$JOINSTYLE
280
0
  9
$LWDISPLAY
290
0
  9
$INSUNITS
 70
6
  9
$HYPERLINKBASE
  1

  9
$STYLESHEET
  1

  9
$XEDIT
290
1
  9
$CEPSNTYPE
380
0
  9
$PSTYLEMODE
290
1
  9
$FINGERPRINTGUID
  2
{42E55320-EE13-48CC-BCA6-555E84E35C8E}
  9
$VERSIONGUID
  2
{9D9FC44E-80A5-44B6-9C9D-4580E942BFED}
  9
$EXTNAMES
290
1
  9
$PSVPSCALE
 40
0.0
  9
$OLESTARTUP
290
0
  9
$SORTENTS
280
127
  9
$INDEXCTL
280
0
  9
$HIDETEXT
280
1
  9
$XCLIPFRAME
280
1
  9
$HALOGAP
280
0
  9
$OBSCOLOR
 70
257
  9
$OBSLTYPE
280
0
  9
$INTERSECTIONDISPLAY
280
0
  9
$INTERSECTIONCOLOR
 70
257
  9
$DIMASSOC
280
2
  9
$PROJECTNAME
  1

  9
$CAMERADISPLAY
290
0
  9
$LENSLENGTH
 40
50.0
  9
$CAMERAHEIGHT
 40
0.0
  9
$STEPSPERSEC
 40
24.0
  9
$STEPSIZE
 40
100.0
  9
$3DDWFPREC
 40
2.0
  9
$PSOLWIDTH
 40
0.005
  9
$PSOLHEIGHT
 40
0.08
  9
$LOFTANG1
 40
1.570796326795
  9
$LOFTANG2
 40
1.570796326795
  9
$LOFTMAG1
 40
0.0
  9
$LOFTMAG2
 40
0.0
  9
$LOFTPARAM
 70
7
  9
$LOFTNORMALS
280
1
  9
$LATITUDE
 40
37.795
  9
$LONGITUDE
 40
-122.394
  9
$NORTHDIRECTION
 40
0.0
  9
$TIMEZONE
 70
-8000
  9
$LIGHTGLYPHDISPLAY
280
1
  9
$TILEMODELIGHTSYNCH
280
1
  9
$CMATERIAL
347
20
  9
$SOLIDHIST
280
0
  9
$SHOWHIST
280
1
  9
$DWFFRAME
280
2
  9
$DGNFRAME
280
2
  9
$REALWORLDSCALE
290
1
  9
$INTERFERECOLOR
 62
256
  9
$CSHADOW
280
0
  9
$SHADOWPLANELOCATION
 40
0.0
  0
ENDSEC
  0
SECTION
  2
CLASSES
  0
CLASS
  1
ACDBDICTIONARYWDFLT
  2
AcDbDictionaryWithDefault
  3
ObjectDBX Classes
 90
0
 91
0
280
0
281
0
  0
CLASS
  1
SUN
  2
AcDbSun
  3
SCENEOE
 90
1153
 91
0
280
0
281
0
  0
CLASS
  1
VISUALSTYLE
  2
AcDbVisualStyle
  3
ObjectDBX Classes
 90
4095
 91
0
280
0
281
0
  0
CLASS
  1
MATERIAL
  2
AcDbMaterial
  3
ObjectDBX Classes
 90
1153
 91
0
280
0
281
0
  0
CLASS
  1
SCALE
  2
AcDbScale
  3
ObjectDBX Classes
 90
1153
 91
0
280
0
281
0
  0
CLASS
  1
TABLESTYLE
  2
AcDbTableStyle
  3
ObjectDBX Classes
 90
4095
 91
0
280
0
281
0
  0
CLASS
  1
MLEADERSTYLE
  2
AcDbMLeaderStyle
  3
ACDB_MLEADERSTYLE_CLASS
 90
4095
 91
0
280
0
281
0
  0
CLASS
  1
DICTIONARYVAR
  2
AcDbDictionaryVar
  3
ObjectDBX Classes
 90
0
 91
0
280
0
281
0
  0
CLASS
  1
CELLSTYLEMAP
  2
AcDbCellStyleMap
  3
ObjectDBX Classes
 90
1152
 91
0
280
0
281
0
  0
CLASS
  1
MENTALRAYRENDERSETTINGS
  2
AcDbMentalRayRenderSettings
  3
SCENEOE
 90
1024
 91
0
280
0
281
0
  0
CLASS
  1
ACDBDETAILVIEWSTYLE
  2
AcDbDetailViewStyle
  3
ObjectDBX Classes
 90
1025
 91
0
280
0
281
0
  0
CLASS
  1
ACDBSECTIONVIEWSTYLE
  2
AcDbSectionViewStyle
  3
ObjectDBX Classes
 90
1025
 91
0
280
0
281
0
  0
CLASS
  1
RASTERVARIABLES
  2
AcDbRasterVariables
  3
ISM
 90
0
 91
0
280
0
281
0
  0
CLASS
  1
ACDBPLACEHOLDER
  2
AcDbPlaceHolder
  3
ObjectDBX Classes
 90
0
 91
0
280
0
281
0
  0
CLASS
  1
LAYOUT
  2
AcDbLayout
  3
ObjectDBX Classes
 90
0
 91
0
280
0
281
0
  0
ENDSEC
  0
SECTION
  2
TABLES
  0
TABLE
  2
VPORT
  5
8
330
0
100
AcDbSymbolTable
 70
1
  0
VPORT
  5
23
330
8
100
AcDbSymbolTableRecord
100
AcDbViewportTableRecord
  2
*Active
 70
0
 10
0.0
 20
0.0
 11
1.0
 21
1.0
 12
0.0
 22
0.0
 13
0.0
 23
0.0
 14
0.5
 24
0.5
 15
0.5
 25
0.5
 16
0.0
 26
0.0
 36
1.0
 17
0.0
 27
0.0
 37
0.0
 40
1000.0
 41
1.34
 42
50.0
 43
0.0
 44
0.0
 50
0.0
 51
0.0
 71
0
 72
1000
 73
1
 74
3
 75
0
 76
0
 77
0
 78
0
281
0
 65
0
146
0.0
  0
ENDTAB
  0
TABLE
  2
LTYPE
  5
2
330
0
100
AcDbSymbolTable
 70
3
  0
LTYPE
  5
24
330
2
100
AcDbSymbolTableRecord
100
AcDbLinetypeTableRecord
  2
ByBlock
 70
0
  3

 72
65
 73
0
 40
0.0
  0
LTYPE
  5
25
330
2
100
AcDbSymbolTableRecord
100
AcDbLinetypeTableRecord
  2
ByLayer
 70
0
  3

 72
65
 73
0
 40
0.0
  0
LTYPE
  5
26
330
2
100
AcDbSymbolTableRecord
100
AcDbLinetypeTableRecord
  2
Continuous
 70
0
  3

 72
65
 73
0
 40
0.0
  0
ENDTAB
  0
TABLE
  2
LAYER
  5
1
330
0
100
AcDbSymbolTable
 70
4
  0
LAYER
  5
27
330
1
100
AcDbSymbolTableRecord
100
AcDbLayerTableRecord
  2
0
 70
0
 62
7
  6
Continuous
370
-3
390
13
347
21
  0
LAYER
  5
28
330
1
100
AcDbSymbolTableRecord
100
AcDbLayerTableRecord
  2
Defpoints
 70
0
 62
7
  6
Continuous
290
0
370
-3
390
13
347
21
  0
LAYER
  5
2F
330
1
100
AcDbSymbolTableRecord
100
AcDbLayerTableRecord
  2
First Floor
 70
0
 62
7
  6
Continuous
370
-3
390
13
347
21
  0
LAYER
  5
30
330
1
100
AcDbSymbolTableRecord
100
AcDbLayerTableRecord
  2
Ground Floor
 70
0
 62
7
  6
Continuous
370
-3
390
13
347
21
  0
ENDTAB
  0
TABLE
  2
STYLE
  5
5
330
0
100
AcDbSymbolTable
 70
1
  0
STYLE
  5
29
330
5
100
AcDbSymbolTableRecord
100
AcDbTextStyleTableRecord
  2
Standard
 70
0
 40
0.0
 41
1.0
 50
0.0
 71
0
 42
2.5
  3
txt
  4

  0
ENDTAB
  0
TABLE
  2
VIEW
  5
7
330
0
100
AcDbSymbolTable
 70
0
  0
ENDTAB
  0
TABLE
  2
UCS
  5
6
330
0
100
AcDbSymbolTable
 70
0
  0
ENDTAB
  0
TABLE
  2
APPID
  5
3
330
0
100
AcDbSymbolTable
 70
3
  0
APPID
  5
2A
330
3
100
AcDbSymbolTableRecord
100
AcDbRegAppTableRecord
  2
ACAD
 70
0
  0
APPID
  5
1CC
330
3
100
AcDbSymbolTableRecord
100
AcDbRegAppTableRecord
  2
HATCHBACKGROUNDCOLOR
 70
0
  0
APPID
  5
1CD
330
3
100
AcDbSymbolTableRecord
100
AcDbRegAppTableRecord
  2
EZDXF
 70
0
  0
ENDTAB
  0
TABLE
  2
DIMSTYLE
  5
4
330
0
100
AcDbSymbolTable
 70
1
100
AcDbDimStyleTable
  0
DIMSTYLE
105
2B
330
4
100
AcDbSymbolTableRecord
100
AcDbDimStyleTableRecord
  2
Standard
 70
0
 40
1.0
 41
2.5
 42
0.625
 43
3.75
 44
1.25
 45
0.0
 46
0.0
 47
0.0
 48
0.0
 49
2.5
140
2.5
141
2.5
142
0.0
143
0.03937007874
144
1.0
145
0.0
146
1.0
147
0.625
148
0.0
 69
0
 70
0
 71
0
 72
0
 73
0
 74
0
 75
0
 76
0
 77
1
 78
8
 79
3
170
0
171
3
172
1
173
0
174
0
175
0
176
0
177
0
178
0
179
2
271
2
272
2
273
2
274
3
275
0
276
0
277
2
278
44
279
0
280
0
281
0
282
0
283
0
284
8
285
0
286
0
288
0
289
3
290
0
371
-2
372
-2
  0
ENDTAB
  0
TABLE
  2
BLOCK_RECORD
  5
9
330
0
100
AcDbSymbolTable
 70
2
  0
BLOCK_RECORD
  5
17
330
9
100
AcDbSymbolTableRecord
100
AcDbBlockTableRecord
  2
*Model_Space
340
1A
 70
0
280
1
281
0
  0
BLOCK_RECORD
  5
1B
330
9
100
AcDbSymbolTableRecord
100
AcDbBlockTableRecord
  2
*Paper_Space
340
1E
 70
0
280
1
281
0
  0
ENDTAB
  0
ENDSEC
  0
SECTION
  2
BLOCKS
  0
BLOCK
  5
18
330
17
100
AcDbEntity
  8
0
100
AcDbBlockBegin
  2
*Model_Space
 70
0
 10
0.0
 20
0.0
 30
0.0
  3
*Model_Space
  1

  0
ENDBLK
  5
19
330
17
100
AcDbEntity
  8
0
100
AcDbBlockEnd
  0
BLOCK
  5
1C
330
1B
100
AcDbEntity
  8
0
100
AcDbBlockBegin
  2
*Paper_Space
 70
0
 10
0.0
 20
0.0
 30
0.0
  3
*Paper_Space
  1

  0
ENDBLK
  5
1D
330
1B
100
AcDbEntity
  8
0
100
AcDbBlockEnd
  0
ENDSEC
  0
SECTION
  2
ENTITIES
  0
LINE
  5
31
330
17
100
AcDbEntity
  8
Ground Floor
100
AcDbLine
 10
30.567467302575732
 20
-22.834717192016054
 30
0.0
 11
30.62605538883455
 21
-22.780243013284025
 31
0.0
  0
LINE
  5
32
330
17
100
AcDbEntity
  8
Ground Floor
100
AcDbLine
 10
31.894941378319583
 20
-24.262442537608052
 30
0.0
 11
30.62605538883455
 21
-22.780243013284025
 31
0.0
  0
LINE
  5
33
330
17
100
AcDbEntity
  8
Ground Floor
100
AcDbLine
 10
30.567467302575732
 20
-22.834717192016054
 30
0.0
 11
31.894941378319583
 21
-24.262442537608052
 31
0.0
  0
LINE
  5
34
330
17
100
AcDbEntity
  8
Ground Floor
100
AcDbLine
 10
31.953529464578406
 20
-24.20796835887603
 30
0.0
 11
30.62605538883455
 21
-22.780243013284025
 31
0.0
  0
LINE
  5
35
330
17
100
AcDbEntity
  8
Ground Floor
100
AcDbLine
 10
31.894941378319583
 20
-24.262442537608052
 30
0.0
 11
31.953529464578406
 21
-24.20796835887603
 31
0.0
  0
LINE
  5
36
330
17
100
AcDbEntity
  8
Ground Floor
100
AcDbLine
 10
31.29745448294564
 20
-29.52354774202646
 30
0.0
 11
31.114366713781898
 21
-29.693779550988964
 31
0.0
  0
LINE
  5
37
330
17
100
AcDbEntity
  8
Ground Floor
100
AcDbLine
 10
28.760088699064116
 20
-27.381993568660608
 30
0.0
 11
31.004514052283657
 21
-29.795918636366466
 31
0.0
  0
LINE
  5
38
330
17
100
AcDbEntity
  8
Ground Floor
100
AcDbLine
 10
31.09581081508627
 20
-29.30667588041981
 30
0.0
 11
31.114366713781898
 21
-29.693779550988964
 31
0.0
  0
LINE
  5
39
330
17
100
AcDbEntity
  8
Ground Floor
100
AcDbLine
 10
28.752765188297566
 20
-27.38880284101911
 30
0.0
 11
30.997190541517107
 21
-29.802727908724965
 31
0.0
  0
LINE
  5
3A
330
17
100
AcDbEntity
  8
Ground Floor
100
AcDbLine
 10
30.91272304376397
 20
-29.47690768706077
 30
0.0
 11
31.114366713781898
 21
-29.693779550988964
 31
0.0
  0
LINE
  5
3B
330
17
100
AcDbEntity
  8
Ground Floor
100
AcDbLine
 10
31.29745448294564
 20
-29.52354774202646
 30
0.0
 11
31.09581081508627
 21
-29.30667588041981
 31
0.0
  0
LINE
  5
3C
330
17
100
AcDbEntity
  8
Ground Floor
100
AcDbLine
 10
28.752765188297566
 20
-27.38880284101911
 30
0.0
 11
31.004514052283657
 21
-29.795918636366466
 31
0.0
  0
LINE
  5
3D
330
17
100
AcDbEntity
  8
Ground Floor
100
AcDbLine
 10
31.09581081508627
 20
-29.30667588041981
 30
0.0
 11
30.91272304376397
 21
-29.47690768706077
 31
0.0
  0
LINE
  5
3E
330
17
100
AcDbEntity
  8
Ground Floor
100
AcDbLine
 10
30.563941193108562
 20
-21.949773370796876
 30
0.0
 11
31.296292269763516
 21
-21.26884613494686
 31
0.0
  0
LINE
  5
3F
330
17
100
AcDbEntity
  8
Ground Floor
100
AcDbLine
 10
30.563941193108562
 20
-21.949773370796876
 30
0.0
 11
30.970719206242812
 21
-21.421357087089067
 31
0.0
  0
LINE
  5
40
330
17
100
AcDbEntity
  8
Ground Floor
100
AcDbLine
 10
30.563941193108562
 20
-21.949773370796876
 30
0.0
 11
30.46180210773106
 21
-21.839920709298635
 31
0.0
  0
LINE
  5
41
330
17
100
AcDbEntity
  8
Ground Floor
100
AcDbLine
 10
31.296292269763516
 20
-21.26884613494686
 30
0.0
 11
31.194153184386003
 21
-21.15899347344861
 31
0.0
  0
LINE
  5
42
330
17
100
AcDbEntity
  8
Ground Floor
100
AcDbLine
 10
31.194153184386003
 20
-21.15899347344861
 30
0.0
 11
30.970719206242812
 21
-21.421357087089067
 31
0.0
  0
LINE
  5
43
330
17
100
AcDbEntity
  8
Ground Floor
100
AcDbLine
 10
31.296292269763516
 20
-21.26884613494686
 30
0.0
 11
30.970719206242812
 21
-21.421357087089067
 31
0.0
  0
LINE
  5
44
330
17
100
AcDbEntity
  8
Ground Floor
100
AcDbLine
 10
31.194153184386003
 20
-21.15899347344861
 30
0.0
 11
30.94348211749729
 21
-21.39206304476334
 31
0.0
  0
LINE
  5
45
330
17
100
AcDbEntity
  8
Ground Floor
100
AcDbLine
 10
30.46180210773106
 20
-21.839920709298635
 30
0.0
 11
30.518333233484302
 21
-21.84197765227042
 31
0.0
  0
LINE
  5
46
330
17
100
AcDbEntity
  8
Ground Floor
100
AcDbLine
 10
30.563941193108562
 20
-21.949773370796876
 30
0.0
 11
30.518333233484302
 21
-21.84197765227042
 31
0.0
  0
LINE
  5
47
330
17
100
AcDbEntity
  8
Ground Floor
100
AcDbLine
 10
30.970719206242812
 20
-21.421357087089067
 30
0.0
 11
30.518333233484302
 21
-21.84197765227042
 31
0.0
  0
LINE
  5
48
330
17
100
AcDbEntity
  8
Ground Floor
100
AcDbLine
 10
28.011496477519067
 20
-21.55430433771025
 30
0.0
 11
28.614255545489407
 21
-22.055725391848874
 31
0.0
  0
LINE
  5
49
330
17
100
AcDbEntity
  8
Ground Floor
100
AcDbLine
 10
27.398661965254053
 20
-20.895188368720788
 30
0.0
 11
27.471897072919546
 21
-20.82709564513579
 31
0.0
  0
LINE
  5
4A
330
17
100
AcDbEntity
  8
Ground Floor
100
AcDbLine
 10
28.54102043782391
 20
-22.123818115433874
 30
0.0
 11
28.614255545489407
 21
-22.055725391848874
 31
0.0
  0
LINE
  5
4B
330
17
100
AcDbEntity
  8
Ground Floor
100
AcDbLine
 10
27.05819835887968
 20
-20.529012842816254
 30
0.0
 11
27.131433466545175
 21
-20.460920119231254
 31
0.0
  0
LINE
  5
4C
330
17
100
AcDbEntity
  8
Ground Floor
100
AcDbLine
 10
27.05819835887968
 20
-20.529012842816254
 30
0.0
 11
27.398661965254053
 21
-20.895188368720788
 31
0.0
  0
LINE
  5
4D
330
17
100
AcDbEntity
  8
Ground Floor
100
AcDbLine
 10
27.131433466545175
 20
-20.460920119231254
 30
0.0
 11
27.471897072919546
 21
-20.82709564513579
 31
0.0
  0
LINE
  5
4E
330
17
100
AcDbEntity
  8
Ground Floor
100
AcDbLine
 10
28.011496477519067
 20
-21.55430433771025
 30
0.0
 11
28.08473158518456
 21
-21.486211614125246
 31
0.0
  0
LINE
  5
4F
330
17
100
AcDbEntity
  8
Ground Floor
100
AcDbLine
 10
28.011496477519067
 20
-21.55430433771025
 30
0.0
 11
28.54102043782391
 21
-22.123818115433874
 31
0.0
  0
LINE
  5
50
330
17
100
AcDbEntity
  8
Ground Floor
100
AcDbLine
 10
28.011496477519067
 20
-21.55430433771025
 30
0.0
 11
28.54102043782391
 21
-22.123818115433874
 31
0.0
  0
LINE
  5
51
330
17
100
AcDbEntity
  8
Ground Floor
100
AcDbLine
 10
27.05819835887968
 20
-20.529012842816254
 30
0.0
 11
27.471897072919546
 21
-20.82709564513579
 31
0.0
  0
LINE
  5
52
330
17
100
AcDbEntity
  8
Ground Floor
100
AcDbLine
 10
27.398661965254053
 20
-20.895188368720788
 30
0.0
 11
27.471897072919546
 21
-20.82709564513579
 31
0.0
  0
LINE
  5
53
330
17
100
AcDbEntity
  8
Ground Floor
100
AcDbLine
 10
27.131433466545175
 20
-20.460920119231254
 30
0.0
 11
27.471897072919546
 21
-20.82709564513579
 31
0.0
  0
LINE
  5
54
330
17
100
AcDbEntity
  8
Ground Floor
100
AcDbLine
 10
28.08473158518456
 20
-21.486211614125246
 30
0.0
 11
28.614255545489407
 21
-22.055725391848874
 31
0.0
  0
LINE
  5
55
330
17
100
AcDbEntity
  8
Ground Floor
100
AcDbLine
 10
28.011496477519067
 20
-21.55430433771025
 30
0.0
 11
28.08473158518456
 21
-21.486211614125246
 31
0.0
  0
LINE
  5
56
330
17
100
AcDbEntity
  8
Ground Floor
100
AcDbLine
 10
28.08473158518456
 20
-21.486211614125246
 30
0.0
 11
28.614255545489407
 21
-22.055725391848874
 31
0.0
  0
LINE
  5
57
330
17
100
AcDbEntity
  8
Ground Floor
100
AcDbLine
 10
28.011496477519067
 20
-21.55430433771025
 30
0.0
 11
28.08473158518456
 21
-21.486211614125246
 31
0.0
  0
LINE
  5
58
330
17
100
AcDbEntity
  8
Ground Floor
100
AcDbLine
 10
27.05819835887968
 20
-20.529012842816254
 30
0.0
 11
27.398661965254053
 21
-20.895188368720788
 31
0.0
  0
LINE
  5
59
330
17
100
AcDbEntity
  8
Ground Floor
100
AcDbLine
 10
27.398661965254053
 20
-20.895188368720788
 30
0.0
 11
27.471897072919546
 21
-20.82709564513579
 31
0.0
  0
LINE
  5
5A
330
17
100
AcDbEntity
  8
Ground Floor
100
AcDbLine
 10
25.578849184036585
 20
-21.90448585923328
 30
0.0
 11
27.13143346654513
 21
-20.460920119231208
 31
0.0
  0
LINE
  5
5B
330
17
100
AcDbEntity
  8
Ground Floor
100
AcDbLine
 10
25.578849184036585
 20
-21.90448585923328
 30
0.0
 11
27.063340742960126
 21
-20.38768501156571
 31
0.0
  0
LINE
  5
5C
330
17
100
AcDbEntity
  8
Ground Floor
100
AcDbLine
 10
25.578849184036585
 20
-21.90448585923328
 30
0.0
 11
25.510756460451578
 21
-21.831250751567786
 31
0.0
  0
LINE
  5
5D
330
17
100
AcDbEntity
  8
Ground Floor
100
AcDbLine
 10
25.510756460451578
 20
-21.831250751567786
 30
0.0
 11
27.063340742960126
 21
-20.38768501156571
 31
0.0
  0
LINE
  5
5E
330
17
100
AcDbEntity
  8
Ground Floor
100
AcDbLine
 10
27.13143346654513
 20
-20.460920119231208
 30
0.0
 11
27.063340742960126
 21
-20.38768501156571
 31
0.0
  0
LINE
  5
5F
330
17
100
AcDbEntity
  8
Ground Floor
100
AcDbLine
 10
29.446953145905734
 20
-23.875882454206465
 30
0.0
 11
29.50559852727999
 21
-23.82146996259408
 31
0.0
  0
LINE
  5
60
330
17
100
AcDbEntity
  8
Ground Floor
100
AcDbLine
 10
30.773257977608726
 20
-25.30536400097748
 30
0.0
 11
29.50559852727999
 21
-23.82146996259408
 31
0.0
  0
LINE
  5
61
330
17
100
AcDbEntity
  8
Ground Floor
100
AcDbLine
 10
29.446953145905734
 20
-23.875882454206465
 30
0.0
 11
30.773257977608726
 21
-25.30536400097748
 31
0.0
  0
LINE
  5
62
330
17
100
AcDbEntity
  8
Ground Floor
100
AcDbLine
 10
30.933869574453798
 20
-25.360849942911816
 30
0.0
 11
29.50559852727999
 21
-23.82146996259408
 31
0.0
  0
LINE
  5
63
330
17
100
AcDbEntity
  8
Ground Floor
100
AcDbLine
 10
30.773257977608726
 20
-25.30536400097748
 30
0.0
 11
30.933869574453798
 21
-25.360849942911816
 31
0.0
  0
LINE
  5
64
330
17
100
AcDbEntity
  8
Ground Floor
100
AcDbLine
 10
35.0758289322482
 20
-27.68355172177202
 30
0.0
 11
36.028653475605815
 21
-28.708333876828764
 31
0.0
  0
LINE
  5
65
330
17
100
AcDbEntity
  8
Ground Floor
100
AcDbLine
 10
36.21174124476955
 20
-28.538102067866262
 30
0.0
 11
36.028653475605815
 21
-28.708333876828764
 31
0.0
  0
LINE
  5
66
330
17
100
AcDbEntity
  8
Ground Floor
100
AcDbLine
 10
36.21174124476955
 20
-28.538102067866262
 30
0.0
 11
35.258916701411934
 21
-27.51331991280952
 31
0.0
  0
LINE
  5
67
330
17
100
AcDbEntity
  8
Ground Floor
100
AcDbLine
 10
35.258916701411934
 20
-27.51331991280952
 30
0.0
 11
36.028653475605815
 21
-28.708333876828764
 31
0.0
  0
LINE
  5
68
330
17
100
AcDbEntity
  8
Ground Floor
100
AcDbLine
 10
35.258916701411934
 20
-27.51331991280952
 30
0.0
 11
35.0758289322482
 21
-27.68355172177202
 31
0.0
  0
LINE
  5
69
330
17
100
AcDbEntity
  8
Ground Floor
100
AcDbLine
 10
34.554749019234286
 20
-33.628954330945824
 30
0.0
 11
38.09200471947709
 21
-30.34007578179086
 31
0.0
  0
LINE
  5
6A
330
17
100
AcDbEntity
  8
Ground Floor
100
AcDbLine
 10
34.56155829159279
 20
-33.63627784171237
 30
0.0
 11
38.09200471947709
 21
-30.34007578179086
 31
0.0
  0
LINE
  5
6B
330
17
100
AcDbEntity
  8
Ground Floor
100
AcDbLine
 10
34.39955429865339
 20
-33.227065544155
 30
0.0
 11
35.49808091363523
 21
-32.20567469038056
 31
0.0
  0
LINE
  5
6C
330
17
100
AcDbEntity
  8
Ground Floor
100
AcDbLine
 10
34.56155829159279
 20
-33.63627784171237
 30
0.0
 11
38.09881399183559
 21
-30.34739929255741
 31
0.0
  0
LINE
  5
6D
330
17
100
AcDbEntity
  8
Ground Floor
100
AcDbLine
 10
34.56978610612158
 20
-33.41015331171158
 30
0.0
 11
35.66831272110342
 21
-32.38876245793713
 31
0.0
  0
LINE
  5
6E
330
17
100
AcDbEntity
  8
Ground Floor
100
AcDbLine
 10
34.39955429865339
 20
-33.227065544155
 30
0.0
 11
34.56978610612158
 21
-33.41015331171158
 31
0.0
  0
LINE
  5
6F
330
17
100
AcDbEntity
  8
Ground Floor
100
AcDbLine
 10
35.49808091363523
 20
-32.20567469038056
 30
0.0
 11
35.66831272110342
 21
-32.38876245793713
 31
0.0
  0
LINE
  5
70
330
17
100
AcDbEntity
  8
Ground Floor
100
AcDbLine
 10
34.56978610612158
 20
-33.41015331171158
 30
0.0
 11
35.49808091363523
 21
-32.20567469038056
 31
0.0
  0
LINE
  5
71
330
17
100
AcDbEntity
  8
Ground Floor
100
AcDbLine
 10
35.25891676324538
 20
-27.513319979312673
 30
0.0
 11
37.57493716712751
 21
-25.701290883248358
 31
0.0
  0
LINE
  5
72
330
17
100
AcDbEntity
  8
Ground Floor
100
AcDbLine
 10
37.57493716712751
 20
-25.701290883248358
 30
0.0
 11
37.404705376069046
 21
-25.51820313334078
 31
0.0
  0
LINE
  5
73
330
17
100
AcDbEntity
  8
Ground Floor
100
AcDbLine
 10
37.97682594943752
 20
-25.546096154625427
 30
0.0
 11
35.65527307768928
 21
-27.704635536634104
 31
0.0
  0
LINE
  5
74
330
17
100
AcDbEntity
  8
Ground Floor
100
AcDbLine
 10
37.97001672494306
 20
-25.53877269533762
 30
0.0
 11
35.64846381194614
 21
-27.697312032982506
 31
0.0
  0
LINE
  5
75
330
17
100
AcDbEntity
  8
Ground Floor
100
AcDbLine
 10
35.42914855430384
 20
-27.69640772922025
 30
0.0
 11
37.57493716712751
 21
-25.701290883248358
 31
0.0
  0
LINE
  5
76
330
17
100
AcDbEntity
  8
Ground Floor
100
AcDbLine
 10
35.64846381194614
 20
-27.697312032982506
 30
0.0
 11
37.97682594943752
 21
-25.546096154625427
 31
0.0
  0
LINE
  5
77
330
17
100
AcDbEntity
  8
Ground Floor
100
AcDbLine
 10
35.42914855430384
 20
-27.69640772922025
 30
0.0
 11
35.25891676324538
 21
-27.513319979312673
 31
0.0
  0
LINE
  5
78
330
17
100
AcDbEntity
  8
Ground Floor
100
AcDbLine
 10
35.25891676324538
 20
-27.513319979312673
 30
0.0
 11
37.404705376069046
 21
-25.51820313334078
 31
0.0
  0
LINE
  5
79
330
17
100
AcDbEntity
  8
Ground Floor
100
AcDbLine
 10
24.428865871329783
 20
-17.510196191173485
 30
0.0
 11
22.121959979866734
 21
-19.655116984100978
 31
0.0
  0
LINE
  5
7A
330
17
100
AcDbEntity
  8
Ground Floor
100
AcDbLine
 10
22.190052703451737
 20
-19.728352091766475
 30
0.0
 11
24.496958594914783
 21
-17.58343129883898
 31
0.0
  0
LINE
  5
7B
330
17
100
AcDbEntity
  8
Ground Floor
100
AcDbLine
 10
24.428865871329783
 20
-17.510196191173485
 30
0.0
 11
22.121959979866734
 21
-19.655116984100978
 31
0.0
  0
LINE
  5
7C
330
17
100
AcDbEntity
  8
Ground Floor
100
AcDbLine
 10
24.496958594914787
 20
-17.58343129883898
 30
0.0
 11
22.121959979866734
 21
-19.655116984100978
 31
0.0
  0
LINE
  5
7D
330
17
100
AcDbEntity
  8
Ground Floor
100
AcDbLine
 10
22.190052703451737
 20
-19.728352091766475
 30
0.0
 11
24.496958594914787
 21
-17.58343129883898
 31
0.0
  0
LINE
  5
7E
330
17
100
AcDbEntity
  8
Ground Floor
100
AcDbLine
 10
22.190052703451737
 20
-19.728352091766475
 30
0.0
 11
22.121959979866734
 21
-19.655116984100978
 31
0.0
  0
LINE
  5
7F
330
17
100
AcDbEntity
  8
Ground Floor
100
AcDbLine
 10
24.496958594914787
 20
-17.58343129883898
 30
0.0
 11
24.428865871329783
 21
-17.510196191173485
 31
0.0
  0
LINE
  5
80
330
17
100
AcDbEntity
  8
Ground Floor
100
AcDbLine
 10
24.496958594914783
 20
-17.58343129883898
 30
0.0
 11
24.428865871329783
 21
-17.510196191173485
 31
0.0
  0
LINE
  5
81
330
17
100
AcDbEntity
  8
Ground Floor
100
AcDbLine
 10
24.496958594914783
 20
-17.58343129883898
 30
0.0
 11
24.428865871329783
 21
-17.510196191173485
 31
0.0
  0
LINE
  5
82
330
17
100
AcDbEntity
  8
Ground Floor
100
AcDbLine
 10
24.897921948186532
 20
-21.17213478257835
 30
0.0
 11
24.165570871531767
 21
-21.853062018428172
 31
0.0
  0
LINE
  5
83
330
17
100
AcDbEntity
  8
Ground Floor
100
AcDbLine
 10
24.897921948186532
 20
-21.17213478257835
 30
0.0
 11
24.966014671771536
 21
-21.245369890243847
 31
0.0
  0
LINE
  5
84
330
17
100
AcDbEntity
  8
Ground Floor
100
AcDbLine
 10
24.165570871531767
 20
-21.853062018428172
 30
0.0
 11
24.233663595116777
 21
-21.92629712609368
 31
0.0
  0
LINE
  5
85
330
17
100
AcDbEntity
  8
Ground Floor
100
AcDbLine
 10
24.966014671771536
 20
-21.245369890243847
 30
0.0
 11
24.233663595116777
 21
-21.92629712609368
 31
0.0
  0
LINE
  5
86
330
17
100
AcDbEntity
  8
Ground Floor
100
AcDbLine
 10
24.897921948186532
 20
-21.17213478257835
 30
0.0
 11
24.233663595116777
 21
-21.92629712609368
 31
0.0
  0
LINE
  5
87
330
17
100
AcDbEntity
  8
Ground Floor
100
AcDbLine
 10
25.50561407637113
 20
-21.97257858281824
 30
0.0
 11
25.64694190762164
 21
-21.977720966898726
 31
0.0
  0
LINE
  5
88
330
17
100
AcDbEntity
  8
Ground Floor
100
AcDbLine
 10
26.988436155315387
 20
-23.567383855435885
 30
0.0
 11
26.45891220656114
 21
-22.997870090135123
 31
0.0
  0
LINE
  5
89
330
17
100
AcDbEntity
  8
Ground Floor
100
AcDbLine
 10
27.061671262980894
 20
-23.499291131850875
 30
0.0
 11
26.53214731422665
 21
-22.929777366550113
 31
0.0
  0
LINE
  5
8A
330
17
100
AcDbEntity
  8
Ground Floor
100
AcDbLine
 10
25.57370679995613
 20
-22.045813690483737
 30
0.0
 11
25.64694190762164
 21
-21.977720966898726
 31
0.0
  0
LINE
  5
8B
330
17
100
AcDbEntity
  8
Ground Floor
100
AcDbLine
 10
26.45891220656113
 20
-22.99787009013513
 30
0.0
 11
26.532147314226638
 21
-22.92977736655012
 31
0.0
  0
LINE
  5
8C
330
17
100
AcDbEntity
  8
Ground Floor
100
AcDbLine
 10
25.77798497071112
 20
-22.265519013480183
 30
0.0
 11
25.57370679995613
 21
-22.045813690483737
 31
0.0
  0
LINE
  5
8D
330
17
100
AcDbEntity
  8
Ground Floor
100
AcDbLine
 10
25.85122007837666
 20
-22.19742628989514
 30
0.0
 11
25.505614076371188
 21
-21.972578582818187
 31
0.0
  0
LINE
  5
8E
330
17
100
AcDbEntity
  8
Ground Floor
100
AcDbLine
 10
25.851220078376627
 20
-22.19742628989517
 30
0.0
 11
25.64694190762164
 21
-21.977720966898726
 31
0.0
  0
LINE
  5
8F
330
17
100
AcDbEntity
  8
Ground Floor
100
AcDbLine
 10
25.777984970711156
 20
-22.26551901348015
 30
0.0
 11
25.57370679995613
 21
-22.045813690483737
 31
0.0
  0
LINE
  5
90
330
17
100
AcDbEntity
  8
Ground Floor
100
AcDbLine
 10
25.505614076371188
 20
-21.972578582818187
 30
0.0
 11
25.57884918403669
 21
-21.904485859233176
 31
0.0
  0
LINE
  5
91
330
17
100
AcDbEntity
  8
Ground Floor
100
AcDbLine
 10
26.988436155315387
 20
-23.567383855435885
 30
0.0
 11
27.061671262980894
 21
-23.499291131850875
 31
0.0
  0
LINE
  5
92
330
17
100
AcDbEntity
  8
Ground Floor
100
AcDbLine
 10
25.505614076371188
 20
-21.972578582818187
 30
0.0
 11
25.57370679995613
 21
-22.045813690483737
 31
0.0
  0
LINE
  5
93
330
17
100
AcDbEntity
  8
Ground Floor
100
AcDbLine
 10
27.061671262980894
 20
-23.499291131850875
 30
0.0
 11
26.45891220656114
 21
-22.997870090135123
 31
0.0
  0
LINE
  5
94
330
17
100
AcDbEntity
  8
Ground Floor
100
AcDbLine
 10
26.988436155315387
 20
-23.567383855435885
 30
0.0
 11
26.45891220656113
 21
-22.99787009013513
 31
0.0
  0
LINE
  5
95
330
17
100
AcDbEntity
  8
Ground Floor
100
AcDbLine
 10
25.50561407637113
 20
-21.97257858281824
 30
0.0
 11
25.57370679995613
 21
-22.045813690483737
 31
0.0
  0
LINE
  5
96
330
17
100
AcDbEntity
  8
Ground Floor
100
AcDbLine
 10
27.061671262980894
 20
-23.499291131850875
 30
0.0
 11
26.532147314226638
 21
-22.92977736655012
 31
0.0
  0
LINE
  5
97
330
17
100
AcDbEntity
  8
Ground Floor
100
AcDbLine
 10
25.77798497071112
 20
-22.265519013480183
 30
0.0
 11
25.851220078376627
 21
-22.19742628989517
 31
0.0
  0
LINE
  5
98
330
17
100
AcDbEntity
  8
Ground Floor
100
AcDbLine
 10
25.85122007837666
 20
-22.19742628989514
 30
0.0
 11
25.64694190762164
 21
-21.977720966898726
 31
0.0
  0
LINE
  5
99
330
17
100
AcDbEntity
  8
Ground Floor
100
AcDbLine
 10
25.57884918403669
 20
-21.904485859233176
 30
0.0
 11
25.64694190762164
 21
-21.977720966898726
 31
0.0
  0
LINE
  5
9A
330
17
100
AcDbEntity
  8
Ground Floor
100
AcDbLine
 10
26.45891220656114
 20
-22.997870090135123
 30
0.0
 11
26.53214731422665
 21
-22.929777366550113
 31
0.0
  0
LINE
  5
9B
330
17
100
AcDbEntity
  8
Ground Floor
100
AcDbLine
 10
25.777984970711156
 20
-22.26551901348015
 30
0.0
 11
25.505614076371188
 21
-21.972578582818187
 31
0.0
  0
LINE
  5
9C
330
17
100
AcDbEntity
  8
Ground Floor
100
AcDbLine
 10
25.505614076371188
 20
-21.972578582818187
 30
0.0
 11
25.57884918403664
 21
-21.90448585923323
 31
0.0
  0
LINE
  5
9D
330
17
100
AcDbEntity
  8
Ground Floor
100
AcDbLine
 10
25.57884918403664
 20
-21.90448585923323
 30
0.0
 11
25.64694190762164
 21
-21.977720966898726
 31
0.0
  0
LINE
  5
9E
330
17
100
AcDbEntity
  8
Ground Floor
100
AcDbLine
 10
25.50561407637113
 20
-21.97257858281824
 30
0.0
 11
25.57884918403664
 21
-21.90448585923323
 31
0.0
  0
LINE
  5
9F
330
17
100
AcDbEntity
  8
Ground Floor
100
AcDbLine
 10
25.77798497071112
 20
-22.265519013480183
 30
0.0
 11
25.85122007837666
 21
-22.19742628989514
 31
0.0
  0
LINE
  5
A0
330
17
100
AcDbEntity
  8
Ground Floor
100
AcDbLine
 10
25.85122007837666
 20
-22.19742628989514
 30
0.0
 11
25.57884918403669
 21
-21.904485859233176
 31
0.0
  0
LINE
  5
A1
330
17
100
AcDbEntity
  8
Ground Floor
100
AcDbLine
 10
26.45891220656114
 20
-22.997870090135123
 30
0.0
 11
26.532147314226638
 21
-22.92977736655012
 31
0.0
  0
LINE
  5
A2
330
17
100
AcDbEntity
  8
Ground Floor
100
AcDbLine
 10
25.777984970711156
 20
-22.26551901348015
 30
0.0
 11
25.85122007837666
 21
-22.19742628989514
 31
0.0
  0
LINE
  5
A3
330
17
100
AcDbEntity
  8
Ground Floor
100
AcDbLine
 10
29.27337151447886
 20
-21.442890879583864
 30
0.0
 11
28.614255545489403
 21
-22.055725391848874
 31
0.0
  0
LINE
  5
A4
330
17
100
AcDbEntity
  8
Ground Floor
100
AcDbLine
 10
29.34146423806386
 20
-21.516125987249357
 30
0.0
 11
29.27337151447886
 21
-21.442890879583864
 31
0.0
  0
LINE
  5
A5
330
17
100
AcDbEntity
  8
Ground Floor
100
AcDbLine
 10
28.682348269074414
 20
-22.128960499514374
 30
0.0
 11
28.614255545489403
 21
-22.055725391848874
 31
0.0
  0
LINE
  5
A6
330
17
100
AcDbEntity
  8
Ground Floor
100
AcDbLine
 10
29.34146423806386
 20
-21.516125987249357
 30
0.0
 11
28.682348269074414
 21
-22.128960499514374
 31
0.0
  0
LINE
  5
A7
330
17
100
AcDbEntity
  8
Ground Floor
100
AcDbLine
 10
29.27337151447886
 20
-21.442890879583864
 30
0.0
 11
28.682348269074414
 21
-22.128960499514374
 31
0.0
  0
LINE
  5
A8
330
17
100
AcDbEntity
  8
Ground Floor
100
AcDbLine
 10
24.474988062615072
 20
-17.603859115914542
 30
0.0
 11
24.89799213295712
 21
-18.058808587802996
 31
0.0
  0
LINE
  5
A9
330
17
100
AcDbEntity
  8
Ground Floor
100
AcDbLine
 10
24.401752954949576
 20
-17.671951839499545
 30
0.0
 11
24.897992132957125
 21
-18.058808587803
 31
0.0
  0
LINE
  5
AA
330
17
100
AcDbEntity
  8
Ground Floor
100
AcDbLine
 10
24.824757025291625
 20
-18.126901311388
 30
0.0
 11
24.89799213295712
 21
-18.058808587802996
 31
0.0
  0
LINE
  5
AB
330
17
100
AcDbEntity
  8
Ground Floor
100
AcDbLine
 10
25.437591537556642
 20
-18.78601728037746
 30
0.0
 11
27.13143346654513
 21
-20.4609201192312
 31
0.0
  0
LINE
  5
AC
330
17
100
AcDbEntity
  8
Ground Floor
100
AcDbLine
 10
27.058198358879633
 20
-20.529012842816204
 30
0.0
 11
27.13143346654513
 21
-20.4609201192312
 31
0.0
  0
LINE
  5
AD
330
17
100
AcDbEntity
  8
Ground Floor
100
AcDbLine
 10
24.474988062615072
 20
-17.603859115914542
 30
0.0
 11
24.401752954949576
 21
-17.671951839499545
 31
0.0
  0
LINE
  5
AE
330
17
100
AcDbEntity
  8
Ground Floor
100
AcDbLine
 10
24.401752954949576
 20
-17.671951839499545
 30
0.0
 11
24.82475702529163
 21
-18.126901311388
 31
0.0
  0
LINE
  5
AF
330
17
100
AcDbEntity
  8
Ground Floor
100
AcDbLine
 10
25.437591537556635
 20
-18.78601728037745
 30
0.0
 11
27.058198358879633
 21
-20.529012842816204
 31
0.0
  0
LINE
  5
B0
330
17
100
AcDbEntity
  8
Ground Floor
100
AcDbLine
 10
25.437591537556635
 20
-18.78601728037745
 30
0.0
 11
25.51082664522213
 21
-18.71792455679245
 31
0.0
  0
LINE
  5
B1
330
17
100
AcDbEntity
  8
Ground Floor
100
AcDbLine
 10
24.82475702529163
 20
-18.126901311388
 30
0.0
 11
24.897992132957125
 21
-18.058808587803
 31
0.0
  0
LINE
  5
B2
330
17
100
AcDbEntity
  8
Ground Floor
100
AcDbLine
 10
25.51082664522213
 20
-18.71792455679245
 30
0.0
 11
27.13143346654513
 21
-20.4609201192312
 31
0.0
  0
LINE
  5
B3
330
17
100
AcDbEntity
  8
Ground Floor
100
AcDbLine
 10
25.437591537556642
 20
-18.78601728037746
 30
0.0
 11
27.058198358879633
 21
-20.529012842816204
 31
0.0
  0
LINE
  5
B4
330
17
100
AcDbEntity
  8
Ground Floor
100
AcDbLine
 10
24.474988062615072
 20
-17.603859115914542
 30
0.0
 11
24.897992132957125
 21
-18.058808587803
 31
0.0
  0
LINE
  5
B5
330
17
100
AcDbEntity
  8
Ground Floor
100
AcDbLine
 10
25.437591537556635
 20
-18.78601728037745
 30
0.0
 11
25.51082664522214
 21
-18.717924556792457
 31
0.0
  0
LINE
  5
B6
330
17
100
AcDbEntity
  8
Ground Floor
100
AcDbLine
 10
24.401752954949576
 20
-17.671951839499545
 30
0.0
 11
24.824757025291625
 21
-18.126901311388
 31
0.0
  0
LINE
  5
B7
330
17
100
AcDbEntity
  8
Ground Floor
100
AcDbLine
 10
25.51082664522214
 20
-18.717924556792457
 30
0.0
 11
27.13143346654513
 21
-20.4609201192312
 31
0.0
  0
LINE
  5
B8
330
17
100
AcDbEntity
  8
Ground Floor
100
AcDbLine
 10
24.82475702529163
 20
-18.126901311388
 30
0.0
 11
24.89799213295712
 21
-18.058808587802996
 31
0.0
  0
LINE
  5
B9
330
17
100
AcDbEntity
  8
Ground Floor
100
AcDbLine
 10
25.437591537556642
 20
-18.78601728037746
 30
0.0
 11
25.51082664522214
 21
-18.717924556792457
 31
0.0
  0
LINE
  5
BA
330
17
100
AcDbEntity
  8
Ground Floor
100
AcDbLine
 10
32.09199117050641
 20
-21.977777899219188
 30
0.0
 11
31.28640500133742
 21
-22.726797878242536
 31
0.0
  0
LINE
  5
BB
330
17
100
AcDbEntity
  8
Ground Floor
100
AcDbLine
 10
32.09199117050641
 20
-21.977777899219188
 30
0.0
 11
32.160083895733386
 21
-22.051013005358012
 31
0.0
  0
LINE
  5
BC
330
17
100
AcDbEntity
  8
Ground Floor
100
AcDbLine
 10
31.354497726564393
 20
-22.80003298438136
 30
0.0
 11
32.160083895733386
 21
-22.051013005358012
 31
0.0
  0
LINE
  5
BD
330
17
100
AcDbEntity
  8
Ground Floor
100
AcDbLine
 10
31.28640500133742
 20
-22.726797878242536
 30
0.0
 11
32.160083895733386
 21
-22.051013005358012
 31
0.0
  0
LINE
  5
BE
330
17
100
AcDbEntity
  8
Ground Floor
100
AcDbLine
 10
31.28640500133742
 20
-22.726797878242536
 30
0.0
 11
31.354497726564393
 21
-22.80003298438136
 31
0.0
  0
LINE
  5
BF
330
17
100
AcDbEntity
  8
Ground Floor
100
AcDbLine
 10
32.44163349708446
 20
-23.822411023264557
 30
0.0
 11
33.101035703587975
 21
-23.20931037235996
 31
0.0
  0
LINE
  5
C0
330
17
100
AcDbEntity
  8
Ground Floor
100
AcDbLine
 10
34.2578641671886
 20
-22.13371147835666
 30
0.0
 11
34.32595689077361
 21
-22.20694658602216
 31
0.0
  0
LINE
  5
C1
330
17
100
AcDbEntity
  8
Ground Floor
100
AcDbLine
 10
33.101035703587975
 20
-23.20931037235996
 30
0.0
 11
33.16912842717298
 21
-23.28254548002546
 31
0.0
  0
LINE
  5
C2
330
17
100
AcDbEntity
  8
Ground Floor
100
AcDbLine
 10
33.76015167257743
 20
-22.596475860094948
 30
0.0
 11
34.2578641671886
 21
-22.13371147835666
 31
0.0
  0
LINE
  5
C3
330
17
100
AcDbEntity
  8
Ground Floor
100
AcDbLine
 10
32.50972622066947
 20
-23.89564613093006
 30
0.0
 11
33.16912842717298
 21
-23.282545480025462
 31
0.0
  0
LINE
  5
C4
330
17
100
AcDbEntity
  8
Ground Floor
100
AcDbLine
 10
33.101035703587975
 20
-23.20931037235996
 30
0.0
 11
33.16912842717298
 21
-23.28254548002546
 31
0.0
  0
LINE
  5
C5
330
17
100
AcDbEntity
  8
Ground Floor
100
AcDbLine
 10
33.76015167257743
 20
-22.596475860094948
 30
0.0
 11
33.82824439616243
 21
-22.66971096776045
 31
0.0
  0
LINE
  5
C6
330
17
100
AcDbEntity
  8
Ground Floor
100
AcDbLine
 10
33.76015167257743
 20
-22.596475860094948
 30
0.0
 11
34.2578641671886
 21
-22.13371147835666
 31
0.0
  0
LINE
  5
C7
330
17
100
AcDbEntity
  8
Ground Floor
100
AcDbLine
 10
33.82824439616243
 20
-22.66971096776045
 30
0.0
 11
34.32595689077361
 21
-22.20694658602216
 31
0.0
  0
LINE
  5
C8
330
17
100
AcDbEntity
  8
Ground Floor
100
AcDbLine
 10
32.44163349708446
 20
-23.822411023264557
 30
0.0
 11
33.101035703587975
 21
-23.20931037235996
 31
0.0
  0
LINE
  5
C9
330
17
100
AcDbEntity
  8
Ground Floor
100
AcDbLine
 10
32.44163349708446
 20
-23.822411023264557
 30
0.0
 11
32.50972622066947
 21
-23.89564613093006
 31
0.0
  0
LINE
  5
CA
330
17
100
AcDbEntity
  8
Ground Floor
100
AcDbLine
 10
33.82824439616243
 20
-22.66971096776045
 30
0.0
 11
34.32595689077361
 21
-22.20694658602216
 31
0.0
  0
LINE
  5
CB
330
17
100
AcDbEntity
  8
Ground Floor
100
AcDbLine
 10
33.76015167257743
 20
-22.596475860094948
 30
0.0
 11
33.82824439616243
 21
-22.66971096776045
 31
0.0
  0
LINE
  5
CC
330
17
100
AcDbEntity
  8
Ground Floor
100
AcDbLine
 10
32.50972622066947
 20
-23.89564613093006
 30
0.0
 11
33.16912842717298
 21
-23.28254548002546
 31
0.0
  0
LINE
  5
CD
330
17
100
AcDbEntity
  8
Ground Floor
100
AcDbLine
 10
33.76015167257743
 20
-22.596475860094948
 30
0.0
 11
33.82824439616243
 21
-22.66971096776045
 31
0.0
  0
LINE
  5
CE
330
17
100
AcDbEntity
  8
Ground Floor
100
AcDbLine
 10
32.44163349708446
 20
-23.822411023264557
 30
0.0
 11
33.16912842717298
 21
-23.282545480025462
 31
0.0
  0
LINE
  5
CF
330
17
100
AcDbEntity
  8
Ground Floor
100
AcDbLine
 10
33.76015167257743
 20
-22.596475860094948
 30
0.0
 11
34.32595689077361
 21
-22.20694658602216
 31
0.0
  0
LINE
  5
D0
330
17
100
AcDbEntity
  8
Ground Floor
100
AcDbLine
 10
33.101035703587975
 20
-23.20931037235996
 30
0.0
 11
33.16912842717298
 21
-23.282545480025462
 31
0.0
  0
LINE
  5
D1
330
17
100
AcDbEntity
  8
Ground Floor
100
AcDbLine
 10
29.844605361032695
 20
-20.91176763939321
 30
0.0
 11
29.786017260877514
 21
-20.96624183129935
 31
0.0
  0
LINE
  5
D2
330
17
100
AcDbEntity
  8
Ground Floor
100
AcDbLine
 10
29.71278215321202
 20
-21.03433455488435
 30
0.0
 11
29.786017260877514
 21
-20.96624183129935
 31
0.0
  0
LINE
  5
D3
330
17
100
AcDbEntity
  8
Ground Floor
100
AcDbLine
 10
29.78087487679703
 20
-21.107569662549842
 30
0.0
 11
29.912698085143127
 21
-20.98500274657017
 31
0.0
  0
LINE
  5
D4
330
17
100
AcDbEntity
  8
Ground Floor
100
AcDbLine
 10
30.51836834980937
 20
-20.285314584034484
 30
0.0
 11
30.430486222356652
 21
-20.367025850713198
 31
0.0
  0
LINE
  5
D5
330
17
100
AcDbEntity
  8
Ground Floor
100
AcDbLine
 10
29.78087487679703
 20
-21.107569662549842
 30
0.0
 11
29.712782153212025
 21
-21.034334554884346
 31
0.0
  0
LINE
  5
D6
330
17
100
AcDbEntity
  8
Ground Floor
100
AcDbLine
 10
29.854109984462518
 20
-21.039476938964846
 30
0.0
 11
29.78087487679703
 21
-21.107569662549842
 31
0.0
  0
LINE
  5
D7
330
17
100
AcDbEntity
  8
Ground Floor
100
AcDbLine
 10
30.586461073394375
 20
-20.35854969169998
 30
0.0
 11
30.498578946467084
 21
-20.44026095789016
 31
0.0
  0
LINE
  5
D8
330
17
100
AcDbEntity
  8
Ground Floor
100
AcDbLine
 10
29.78087487679703
 20
-21.107569662549842
 30
0.0
 11
29.71278215321202
 21
-21.03433455488435
 31
0.0
  0
LINE
  5
D9
330
17
100
AcDbEntity
  8
Ground Floor
100
AcDbLine
 10
29.854109984462518
 20
-21.039476938964846
 30
0.0
 11
29.786017260877514
 21
-20.96624183129935
 31
0.0
  0
LINE
  5
DA
330
17
100
AcDbEntity
  8
Ground Floor
100
AcDbLine
 10
30.498578946467088
 20
-20.44026095789016
 30
0.0
 11
30.430486222356652
 21
-20.367025850713198
 31
0.0
  0
LINE
  5
DB
330
17
100
AcDbEntity
  8
Ground Floor
100
AcDbLine
 10
30.51836834980937
 20
-20.285314584034484
 30
0.0
 11
30.498578946467088
 21
-20.44026095789016
 31
0.0
  0
LINE
  5
DC
330
17
100
AcDbEntity
  8
Ground Floor
100
AcDbLine
 10
29.78087487679703
 20
-21.107569662549842
 30
0.0
 11
29.844605361032695
 21
-20.91176763939321
 31
0.0
  0
LINE
  5
DD
330
17
100
AcDbEntity
  8
Ground Floor
100
AcDbLine
 10
29.844605361297273
 20
-20.911767639147214
 30
0.0
 11
29.786017260877514
 21
-20.96624183129935
 31
0.0
  0
LINE
  5
DE
330
17
100
AcDbEntity
  8
Ground Floor
100
AcDbLine
 10
29.912698085143127
 20
-20.985002746570174
 30
0.0
 11
29.844605361032695
 21
-20.91176763939321
 31
0.0
  0
LINE
  5
DF
330
17
100
AcDbEntity
  8
Ground Floor
100
AcDbLine
 10
29.854109984462518
 20
-21.039476938964846
 30
0.0
 11
29.78087487679703
 21
-21.107569662549842
 31
0.0
  0
LINE
  5
E0
330
17
100
AcDbEntity
  8
Ground Floor
100
AcDbLine
 10
30.498578946467084
 20
-20.44026095789016
 30
0.0
 11
30.43048622262123
 21
-20.3670258504672
 31
0.0
  0
LINE
  5
E1
330
17
100
AcDbEntity
  8
Ground Floor
100
AcDbLine
 10
29.854109984462518
 20
-21.039476938964846
 30
0.0
 11
29.912698085143127
 21
-20.985002746570174
 31
0.0
  0
LINE
  5
E2
330
17
100
AcDbEntity
  8
Ground Floor
100
AcDbLine
 10
29.844605361032695
 20
-20.91176763939321
 30
0.0
 11
29.712782153212025
 21
-21.034334554884346
 31
0.0
  0
LINE
  5
E3
330
17
100
AcDbEntity
  8
Ground Floor
100
AcDbLine
 10
29.78087487679703
 20
-21.107569662549842
 30
0.0
 11
29.712782153212025
 21
-21.034334554884346
 31
0.0
  0
LINE
  5
E4
330
17
100
AcDbEntity
  8
Ground Floor
100
AcDbLine
 10
29.712782153212025
 20
-21.034334554884346
 30
0.0
 11
29.786017260877514
 21
-20.96624183129935
 31
0.0
  0
LINE
  5
E5
330
17
100
AcDbEntity
  8
Ground Floor
100
AcDbLine
 10
29.912698085143127
 20
-20.985002746570174
 30
0.0
 11
29.844605361297273
 21
-20.911767639147214
 31
0.0
  0
LINE
  5
E6
330
17
100
AcDbEntity
  8
Ground Floor
100
AcDbLine
 10
30.51836834980937
 20
-20.285314584034484
 30
0.0
 11
30.43048622262123
 21
-20.3670258504672
 31
0.0
  0
LINE
  5
E7
330
17
100
AcDbEntity
  8
Ground Floor
100
AcDbLine
 10
30.498578946467084
 20
-20.44026095789016
 30
0.0
 11
30.430486222356652
 21
-20.367025850713198
 31
0.0
  0
LINE
  5
E8
330
17
100
AcDbEntity
  8
Ground Floor
100
AcDbLine
 10
29.854109984462518
 20
-21.039476938964846
 30
0.0
 11
29.912698085143127
 21
-20.98500274657017
 31
0.0
  0
LINE
  5
E9
330
17
100
AcDbEntity
  8
Ground Floor
100
AcDbLine
 10
30.586461073394375
 20
-20.35854969169998
 30
0.0
 11
30.51836834980937
 21
-20.285314584034484
 31
0.0
  0
LINE
  5
EA
330
17
100
AcDbEntity
  8
Ground Floor
100
AcDbLine
 10
30.586461073394375
 20
-20.35854969169998
 30
0.0
 11
30.498578946467088
 21
-20.44026095789016
 31
0.0
  0
LINE
  5
EB
330
17
100
AcDbEntity
  8
Ground Floor
100
AcDbLine
 10
29.78087487679703
 20
-21.107569662549842
 30
0.0
 11
29.786017260877514
 21
-20.96624183129935
 31
0.0
  0
LINE
  5
EC
330
17
100
AcDbEntity
  8
Ground Floor
100
AcDbLine
 10
29.912698085143127
 20
-20.98500274657017
 30
0.0
 11
29.844605361032695
 21
-20.91176763939321
 31
0.0
  0
LINE
  5
ED
330
17
100
AcDbEntity
  8
Ground Floor
100
AcDbLine
 10
28.459363161079235
 20
-25.340311869358633
 30
0.0
 11
28.391270437494235
 21
-25.267076761693136
 31
0.0
  0
LINE
  5
EE
330
17
100
AcDbEntity
  8
Ground Floor
100
AcDbLine
 10
27.895452828722682
 20
-25.8646258440614
 30
0.0
 11
27.827360105196036
 21
-25.791390736341647
 31
0.0
  0
LINE
  5
EF
330
17
100
AcDbEntity
  8
Ground Floor
100
AcDbLine
 10
27.910099853588022
 20
-25.85100729624614
 30
0.0
 11
27.842007130003022
 21
-25.777772188580645
 31
0.0
  0
LINE
  5
F0
330
17
100
AcDbEntity
  8
Ground Floor
100
AcDbLine
 10
28.481333690104982
 20
-25.319884055327147
 30
0.0
 11
28.41324096651998
 21
-25.24664894766165
 31
0.0
  0
LINE
  5
F1
330
17
100
AcDbEntity
  8
Ground Floor
100
AcDbLine
 10
27.910099853588022
 20
-25.85100729624614
 30
0.0
 11
27.827360105196036
 21
-25.791390736341647
 31
0.0
  0
LINE
  5
F2
330
17
100
AcDbEntity
  8
Ground Floor
100
AcDbLine
 10
28.481333690104982
 20
-25.319884055327147
 30
0.0
 11
28.391270437494235
 21
-25.267076761693136
 31
0.0
  0
LINE
  5
F3
330
17
100
AcDbEntity
  8
Ground Floor
100
AcDbLine
 10
29.74494972996946
 20
-24.62290880196636
 30
0.0
 11
29.81304245355446
 21
-24.696143909631854
 31
0.0
  0
LINE
  5
F4
330
17
100
AcDbEntity
  8
Ground Floor
100
AcDbLine
 10
29.81304245355446
 20
-24.696143909631854
 30
0.0
 11
28.860986053902998
 21
-25.581349316236896
 31
0.0
  0
LINE
  5
F5
330
17
100
AcDbEntity
  8
Ground Floor
100
AcDbLine
 10
28.792893330317998
 20
-25.5081142085714
 30
0.0
 11
28.7196582226525
 21
-25.5762069321564
 31
0.0
  0
LINE
  5
F6
330
17
100
AcDbEntity
  8
Ground Floor
100
AcDbLine
 10
28.792893330317998
 20
-25.5081142085714
 30
0.0
 11
28.860986053902998
 21
-25.581349316236896
 31
0.0
  0
LINE
  5
F7
330
17
100
AcDbEntity
  8
Ground Floor
100
AcDbLine
 10
29.74494972996946
 20
-24.62290880196636
 30
0.0
 11
28.792893330317998
 21
-25.5081142085714
 31
0.0
  0
LINE
  5
F8
330
17
100
AcDbEntity
  8
Ground Floor
100
AcDbLine
 10
29.74494972996946
 20
-24.62290880196636
 30
0.0
 11
28.792893330317998
 21
-25.5081142085714
 31
0.0
  0
LINE
  5
F9
330
17
100
AcDbEntity
  8
Ground Floor
100
AcDbLine
 10
28.860986053902998
 20
-25.581349316236896
 30
0.0
 11
28.792893330317998
 21
-25.5081142085714
 31
0.0
  0
LINE
  5
FA
330
17
100
AcDbEntity
  8
Ground Floor
100
AcDbLine
 10
28.792893330317998
 20
-25.5081142085714
 30
0.0
 11
28.860986053902998
 21
-25.581349316236896
 31
0.0
  0
LINE
  5
FB
330
17
100
AcDbEntity
  8
Ground Floor
100
AcDbLine
 10
29.81304245355446
 20
-24.696143909631854
 30
0.0
 11
28.860986053902998
 21
-25.581349316236896
 31
0.0
  0
LINE
  5
FC
330
17
100
AcDbEntity
  8
Ground Floor
100
AcDbLine
 10
28.860986053902998
 20
-25.581349316236896
 30
0.0
 11
28.7196582226525
 21
-25.5762069321564
 31
0.0
  0
LINE
  5
FD
330
17
100
AcDbEntity
  8
Ground Floor
100
AcDbLine
 10
28.7196582226525
 20
-25.5762069321564
 30
0.0
 11
28.787750946237505
 21
-25.649442039821896
 31
0.0
  0
LINE
  5
FE
330
17
100
AcDbEntity
  8
Ground Floor
100
AcDbLine
 10
28.860986053902998
 20
-25.581349316236896
 30
0.0
 11
28.787750946237505
 21
-25.649442039821896
 31
0.0
  0
LINE
  5
FF
330
17
100
AcDbEntity
  8
Ground Floor
100
AcDbLine
 10
29.81304245355446
 20
-24.696143909631854
 30
0.0
 11
28.792893330317998
 21
-25.5081142085714
 31
0.0
  0
LINE
  5
100
330
17
100
AcDbEntity
  8
Ground Floor
100
AcDbLine
 10
28.792893330317995
 20
-25.5081142085714
 30
0.0
 11
28.719658222652498
 21
-25.5762069321564
 31
0.0
  0
LINE
  5
101
330
17
100
AcDbEntity
  8
Ground Floor
100
AcDbLine
 10
28.719658222652498
 20
-25.5762069321564
 30
0.0
 11
28.41324096651997
 21
-25.24664894766165
 31
0.0
  0
LINE
  5
102
330
17
100
AcDbEntity
  8
Ground Floor
100
AcDbLine
 10
28.792893330317995
 20
-25.5081142085714
 30
0.0
 11
28.486476074185468
 21
-25.178556224076647
 31
0.0
  0
LINE
  5
103
330
17
100
AcDbEntity
  8
Ground Floor
100
AcDbLine
 10
28.41324096651997
 20
-25.24664894766165
 30
0.0
 11
28.486476074185468
 21
-25.178556224076647
 31
0.0
  0
LINE
  5
104
330
17
100
AcDbEntity
  8
Ground Floor
100
AcDbLine
 10
28.719658222652498
 20
-25.5762069321564
 30
0.0
 11
28.486476074185468
 21
-25.178556224076647
 31
0.0
  0
LINE
  5
105
330
17
100
AcDbEntity
  8
Ground Floor
100
AcDbLine
 10
30.488827305323998
 20
-25.56982281753732
 30
0.0
 11
30.5909663907015
 21
-25.679675479035563
 31
0.0
  0
LINE
  5
106
330
17
100
AcDbEntity
  8
Ground Floor
100
AcDbLine
 10
28.95089004434859
 20
-26.999770012822356
 30
0.0
 11
30.5909663907015
 21
-25.679675479035563
 31
0.0
  0
LINE
  5
107
330
17
100
AcDbEntity
  8
Ground Floor
100
AcDbLine
 10
30.488827305323998
 20
-25.56982281753732
 30
0.0
 11
28.95089004434859
 21
-26.999770012822356
 31
0.0
  0
LINE
  5
108
330
17
100
AcDbEntity
  8
Ground Floor
100
AcDbLine
 10
29.05302912972609
 20
-27.109622674320597
 30
0.0
 11
30.5909663907015
 21
-25.679675479035563
 31
0.0
  0
LINE
  5
109
330
17
100
AcDbEntity
  8
Ground Floor
100
AcDbLine
 10
28.95089004434859
 20
-26.999770012822356
 30
0.0
 11
29.05302912972609
 21
-27.109622674320597
 31
0.0
  0
LINE
  5
10A
330
17
100
AcDbEntity
  8
Ground Floor
100
AcDbLine
 10
28.008585278551955
 20
-22.755413556496272
 30
0.0
 11
28.417141620085854
 21
-23.19482420251494
 31
0.0
  0
LINE
  5
10B
330
17
100
AcDbEntity
  8
Ground Floor
100
AcDbLine
 10
30.488827305323994
 20
-25.569822817537325
 30
0.0
 11
29.739807345888963
 21
-24.764236633216857
 31
0.0
  0
LINE
  5
10C
330
17
100
AcDbEntity
  8
Ground Floor
100
AcDbLine
 10
27.935350170886462
 20
-22.823506280081272
 30
0.0
 11
28.417141620085868
 21
-23.194824202514955
 31
0.0
  0
LINE
  5
10D
330
17
100
AcDbEntity
  8
Ground Floor
100
AcDbLine
 10
30.562062412989487
 20
-25.501730093952325
 30
0.0
 11
29.813042453554456
 21
-24.696143909631857
 31
0.0
  0
LINE
  5
10E
330
17
100
AcDbEntity
  8
Ground Floor
100
AcDbLine
 10
28.34390651242036
 20
-23.26291692609994
 30
0.0
 11
28.417141620085854
 21
-23.19482420251494
 31
0.0
  0
LINE
  5
10F
330
17
100
AcDbEntity
  8
Ground Floor
100
AcDbLine
 10
30.562062412989487
 20
-25.501730093952325
 30
0.0
 11
30.488827305323994
 21
-25.569822817537325
 31
0.0
  0
LINE
  5
110
330
17
100
AcDbEntity
  8
Ground Floor
100
AcDbLine
 10
29.365297366195392
 20
-24.36144354108238
 30
0.0
 11
29.744949729969452
 21
-24.62290880196636
 31
0.0
  0
LINE
  5
111
330
17
100
AcDbEntity
  8
Ground Floor
100
AcDbLine
 10
29.67171462230396
 20
-24.69100152555136
 30
0.0
 11
29.744949729969452
 21
-24.62290880196636
 31
0.0
  0
LINE
  5
112
330
17
100
AcDbEntity
  8
Ground Floor
100
AcDbLine
 10
28.008585278551955
 20
-22.755413556496272
 30
0.0
 11
27.935350170886462
 21
-22.823506280081272
 31
0.0
  0
LINE
  5
113
330
17
100
AcDbEntity
  8
Ground Floor
100
AcDbLine
 10
27.935350170886462
 20
-22.823506280081272
 30
0.0
 11
28.343906512420375
 21
-23.262916926099955
 31
0.0
  0
LINE
  5
114
330
17
100
AcDbEntity
  8
Ground Floor
100
AcDbLine
 10
29.365297366195378
 20
-24.361443541082362
 30
0.0
 11
29.67171462230396
 21
-24.69100152555136
 31
0.0
  0
LINE
  5
115
330
17
100
AcDbEntity
  8
Ground Floor
100
AcDbLine
 10
29.365297366195378
 20
-24.361443541082362
 30
0.0
 11
29.43853247386087
 21
-24.293350817497362
 31
0.0
  0
LINE
  5
116
330
17
100
AcDbEntity
  8
Ground Floor
100
AcDbLine
 10
29.813042453554456
 20
-24.696143909631857
 30
0.0
 11
29.739807345888963
 21
-24.764236633216857
 31
0.0
  0
LINE
  5
117
330
17
100
AcDbEntity
  8
Ground Floor
100
AcDbLine
 10
28.343906512420375
 20
-23.262916926099955
 30
0.0
 11
28.417141620085868
 21
-23.194824202514955
 31
0.0
  0
LINE
  5
118
330
17
100
AcDbEntity
  8
Ground Floor
100
AcDbLine
 10
29.43853247386087
 20
-24.293350817497362
 30
0.0
 11
29.744949729969452
 21
-24.62290880196636
 31
0.0
  0
LINE
  5
119
330
17
100
AcDbEntity
  8
Ground Floor
100
AcDbLine
 10
29.365297366195392
 20
-24.36144354108238
 30
0.0
 11
29.67171462230396
 21
-24.69100152555136
 31
0.0
  0
LINE
  5
11A
330
17
100
AcDbEntity
  8
Ground Floor
100
AcDbLine
 10
28.008585278551955
 20
-22.755413556496272
 30
0.0
 11
28.417141620085868
 21
-23.194824202514955
 31
0.0
  0
LINE
  5
11B
330
17
100
AcDbEntity
  8
Ground Floor
100
AcDbLine
 10
29.365297366195378
 20
-24.361443541082362
 30
0.0
 11
29.438532473860885
 21
-24.29335081749738
 31
0.0
  0
LINE
  5
11C
330
17
100
AcDbEntity
  8
Ground Floor
100
AcDbLine
 10
27.935350170886462
 20
-22.823506280081272
 30
0.0
 11
28.34390651242036
 21
-23.26291692609994
 31
0.0
  0
LINE
  5
11D
330
17
100
AcDbEntity
  8
Ground Floor
100
AcDbLine
 10
29.813042453554456
 20
-24.696143909631857
 30
0.0
 11
30.488827305323994
 21
-25.569822817537325
 31
0.0
  0
LINE
  5
11E
330
17
100
AcDbEntity
  8
Ground Floor
100
AcDbLine
 10
29.438532473860885
 20
-24.29335081749738
 30
0.0
 11
29.744949729969452
 21
-24.62290880196636
 31
0.0
  0
LINE
  5
11F
330
17
100
AcDbEntity
  8
Ground Floor
100
AcDbLine
 10
28.343906512420375
 20
-23.262916926099955
 30
0.0
 11
28.417141620085854
 21
-23.19482420251494
 31
0.0
  0
LINE
  5
120
330
17
100
AcDbEntity
  8
Ground Floor
100
AcDbLine
 10
29.365297366195392
 20
-24.36144354108238
 30
0.0
 11
29.438532473860885
 21
-24.29335081749738
 31
0.0
  0
LINE
  5
121
330
17
100
AcDbEntity
  8
Ground Floor
100
AcDbLine
 10
31.186745722146615
 20
-21.151026597311652
 30
0.0
 11
32.34386042326129
 21
-20.07516156466877
 31
0.0
  0
LINE
  5
122
330
17
100
AcDbEntity
  8
Ground Floor
100
AcDbLine
 10
31.186745722146615
 20
-21.151026597311652
 30
0.0
 11
32.27576769967629
 21
-20.001926457003275
 31
0.0
  0
LINE
  5
123
330
17
100
AcDbEntity
  8
Ground Floor
100
AcDbLine
 10
31.186745722146615
 20
-21.151026597311652
 30
0.0
 11
31.11865299856161
 21
-21.077791489646156
 31
0.0
  0
LINE
  5
124
330
17
100
AcDbEntity
  8
Ground Floor
100
AcDbLine
 10
31.11865299856161
 20
-21.077791489646156
 30
0.0
 11
32.27576769967629
 21
-20.001926457003275
 31
0.0
  0
LINE
  5
125
330
17
100
AcDbEntity
  8
Ground Floor
100
AcDbLine
 10
32.34386042326129
 20
-20.07516156466877
 30
0.0
 11
32.27576769967629
 21
-20.001926457003275
 31
0.0
  0
LINE
  5
126
330
17
100
AcDbEntity
  8
Ground Floor
100
AcDbLine
 10
30.46180210773106
 20
-21.839920709298635
 30
0.0
 11
30.022391461738096
 21
-22.24847705080864
 31
0.0
  0
LINE
  5
127
330
17
100
AcDbEntity
  8
Ground Floor
100
AcDbLine
 10
30.46180210773106
 20
-21.839920709298635
 30
0.0
 11
30.124530547115597
 21
-22.35832971230688
 31
0.0
  0
LINE
  5
128
330
17
100
AcDbEntity
  8
Ground Floor
100
AcDbLine
 10
30.022391461738096
 20
-22.24847705080864
 30
0.0
 11
30.124530547115597
 21
-22.35832971230688
 31
0.0
  0
LINE
  5
129
330
17
100
AcDbEntity
  8
Ground Floor
100
AcDbLine
 10
30.124530547115597
 20
-22.35832971230688
 30
0.0
 11
30.563941193108562
 21
-21.949773370796876
 31
0.0
  0
LINE
  5
12A
330
17
100
AcDbEntity
  8
Ground Floor
100
AcDbLine
 10
30.46180210773106
 20
-21.839920709298635
 30
0.0
 11
30.563941193108562
 21
-21.949773370796876
 31
0.0
  0
LINE
  5
12B
330
17
100
AcDbEntity
  8
Ground Floor
100
AcDbLine
 10
27.480940109815798
 20
-18.63394309255042
 30
0.0
 11
29.780874876797025
 21
-21.107569662549846
 31
0.0
  0
LINE
  5
12C
330
17
100
AcDbEntity
  8
Ground Floor
100
AcDbLine
 10
27.480940109815798
 20
-18.63394309255042
 30
0.0
 11
29.854109984462518
 21
-21.039476938964846
 31
0.0
  0
LINE
  5
12D
330
17
100
AcDbEntity
  8
Ground Floor
100
AcDbLine
 10
27.55417521748129
 20
-18.565850368965418
 30
0.0
 11
29.854109984462518
 21
-21.039476938964846
 31
0.0
  0
LINE
  5
12E
330
17
100
AcDbEntity
  8
Ground Floor
100
AcDbLine
 10
27.480940109815798
 20
-18.63394309255042
 30
0.0
 11
27.55417521748129
 21
-18.565850368965418
 31
0.0
  0
LINE
  5
12F
330
17
100
AcDbEntity
  8
Ground Floor
100
AcDbLine
 10
29.780874876797025
 20
-21.107569662549846
 30
0.0
 11
29.854109984462518
 21
-21.039476938964846
 31
0.0
  0
LINE
  5
130
330
17
100
AcDbEntity
  8
Ground Floor
100
AcDbLine
 10
30.513225965728886
 20
-20.426642415284984
 30
0.0
 11
30.586461073394382
 21
-20.35854969169998
 31
0.0
  0
LINE
  5
131
330
17
100
AcDbEntity
  8
Ground Floor
100
AcDbLine
 10
30.586461073394382
 20
-20.35854969169998
 30
0.0
 11
31.1237953826421
 21
-20.93646365839567
 31
0.0
  0
LINE
  5
132
330
17
100
AcDbEntity
  8
Ground Floor
100
AcDbLine
 10
30.513225965728886
 20
-20.426642415284984
 30
0.0
 11
31.050560274976604
 21
-21.00455638198067
 31
0.0
  0
LINE
  5
133
330
17
100
AcDbEntity
  8
Ground Floor
100
AcDbLine
 10
31.1237953826421
 20
-20.93646365839567
 30
0.0
 11
31.050560274976604
 21
-21.00455638198067
 31
0.0
  0
LINE
  5
134
330
17
100
AcDbEntity
  8
Ground Floor
100
AcDbLine
 10
30.586461073394382
 20
-20.35854969169998
 30
0.0
 11
31.050560274976604
 21
-21.00455638198067
 31
0.0
  0
LINE
  5
135
330
17
100
AcDbEntity
  8
Ground Floor
100
AcDbLine
 10
30.831846096184584
 20
-25.250889791944132
 30
0.0
 11
30.488827232077554
 21
-25.56982273875928
 31
0.0
  0
LINE
  5
136
330
17
100
AcDbEntity
  8
Ground Floor
100
AcDbLine
 10
30.488827232077554
 20
-25.56982273875928
 30
0.0
 11
30.933869574453812
 21
-25.36084994291184
 31
0.0
  0
LINE
  5
137
330
17
100
AcDbEntity
  8
Ground Floor
100
AcDbLine
 10
30.933869574453812
 20
-25.36084994291184
 30
0.0
 11
30.590966317455056
 21
-25.679675400257523
 31
0.0
  0
LINE
  5
138
330
17
100
AcDbEntity
  8
Ground Floor
100
AcDbLine
 10
30.831846096184584
 20
-25.250889791944132
 30
0.0
 11
30.933869574453812
 21
-25.36084994291184
 31
0.0
  0
LINE
  5
139
330
17
100
AcDbEntity
  8
Ground Floor
100
AcDbLine
 10
30.488827232077554
 20
-25.56982273875928
 30
0.0
 11
30.590966317455056
 21
-25.679675400257523
 31
0.0
  0
LINE
  5
13A
330
17
100
AcDbEntity
  8
Ground Floor
100
AcDbLine
 10
31.25998082981211
 20
-21.082933873726653
 30
0.0
 11
32.09199117203309
 21
-21.977777900861152
 31
0.0
  0
LINE
  5
13B
330
17
100
AcDbEntity
  8
Ground Floor
100
AcDbLine
 10
31.186745722146615
 20
-21.151026597311652
 30
0.0
 11
32.018756064367594
 21
-22.045870624446152
 31
0.0
  0
LINE
  5
13C
330
17
100
AcDbEntity
  8
Ground Floor
100
AcDbLine
 10
32.09199117203309
 20
-21.977777900861152
 30
0.0
 11
32.018756064367594
 21
-22.045870624446152
 31
0.0
  0
LINE
  5
13D
330
17
100
AcDbEntity
  8
Ground Floor
100
AcDbLine
 10
31.25998082981211
 20
-21.082933873726653
 30
0.0
 11
31.186745722146615
 21
-21.151026597311652
 31
0.0
  0
LINE
  5
13E
330
17
100
AcDbEntity
  8
Ground Floor
100
AcDbLine
 10
31.25998082981211
 20
-21.082933873726653
 30
0.0
 11
32.018756064367594
 21
-22.045870624446152
 31
0.0
  0
LINE
  5
13F
330
17
100
AcDbEntity
  8
Ground Floor
100
AcDbLine
 10
31.35449772656439
 20
-22.800032984381353
 30
0.0
 11
31.427732834229882
 21
-22.731940260796353
 31
0.0
  0
LINE
  5
140
330
17
100
AcDbEntity
  8
Ground Floor
100
AcDbLine
 10
31.427732834229882
 20
-22.731940260796353
 30
0.0
 11
32.50972622066948
 21
-23.89564613093005
 31
0.0
  0
LINE
  5
141
330
17
100
AcDbEntity
  8
Ground Floor
100
AcDbLine
 10
31.35449772656439
 20
-22.800032984381353
 30
0.0
 11
32.43649111300398
 21
-23.96373885451505
 31
0.0
  0
LINE
  5
142
330
17
100
AcDbEntity
  8
Ground Floor
100
AcDbLine
 10
32.50972622066948
 20
-23.89564613093005
 30
0.0
 11
32.43649111300398
 21
-23.96373885451505
 31
0.0
  0
LINE
  5
143
330
17
100
AcDbEntity
  8
Ground Floor
100
AcDbLine
 10
31.427732834229882
 20
-22.731940260796353
 30
0.0
 11
32.43649111300398
 21
-23.96373885451505
 31
0.0
  0
LINE
  5
144
330
17
100
AcDbEntity
  8
Ground Floor
100
AcDbLine
 10
25.578849184036585
 20
-21.90448585923328
 30
0.0
 11
25.50561407637109
 21
-21.97257858281828
 31
0.0
  0
LINE
  5
145
330
17
100
AcDbEntity
  8
Ground Floor
100
AcDbLine
 10
25.50561407637109
 20
-21.97257858281828
 30
0.0
 11
24.892779564106092
 21
-21.313462613828797
 31
0.0
  0
LINE
  5
146
330
17
100
AcDbEntity
  8
Ground Floor
100
AcDbLine
 10
25.578849184036585
 20
-21.90448585923328
 30
0.0
 11
24.966014671771585
 21
-21.245369890243794
 31
0.0
  0
LINE
  5
147
330
17
100
AcDbEntity
  8
Ground Floor
100
AcDbLine
 10
24.892779564106092
 20
-21.313462613828797
 30
0.0
 11
24.966014671771585
 21
-21.245369890243794
 31
0.0
  0
LINE
  5
148
330
17
100
AcDbEntity
  8
Ground Floor
100
AcDbLine
 10
25.578849184036585
 20
-21.90448585923328
 30
0.0
 11
24.892779564106092
 21
-21.313462613828797
 31
0.0
  0
LINE
  5
149
330
17
100
AcDbEntity
  8
Ground Floor
100
AcDbLine
 10
32.8078147131572
 20
-31.750090992040064
 30
0.0
 11
33.10807865458573
 21
-31.47091082534156
 31
0.0
  0
LINE
  5
14A
330
17
100
AcDbEntity
  8
Ground Floor
100
AcDbLine
 10
32.8078147131572
 20
-31.750090992040064
 30
0.0
 11
34.56155829159279
 21
-33.63627784171238
 31
0.0
  0
LINE
  5
14B
330
17
100
AcDbEntity
  8
Ground Floor
100
AcDbLine
 10
34.58264206632282
 20
-33.05683373358534
 30
0.0
 11
33.10807865458573
 21
-31.47091082534156
 31
0.0
  0
LINE
  5
14C
330
17
100
AcDbEntity
  8
Ground Floor
100
AcDbLine
 10
32.8078147131572
 20
-31.750090992040064
 30
0.0
 11
34.58264206632282
 21
-33.05683373358534
 31
0.0
  0
LINE
  5
14D
330
17
100
AcDbEntity
  8
Ground Floor
100
AcDbLine
 10
34.56155829159279
 20
-33.63627784171238
 30
0.0
 11
34.58264206632282
 21
-33.05683373358534
 31
0.0
  0
LINE
  5
14E
330
17
100
AcDbEntity
  8
Ground Floor
100
AcDbLine
 10
32.85316634150889
 20
-22.79643726053963
 30
0.0
 11
32.77993123384339
 21
-22.86452998412463
 31
0.0
  0
LINE
  5
14F
330
17
100
AcDbEntity
  8
Ground Floor
100
AcDbLine
 10
32.77993123384339
 20
-22.86452998412463
 30
0.0
 11
32.08684878642594
 21
-22.119105730469684
 31
0.0
  0
LINE
  5
150
330
17
100
AcDbEntity
  8
Ground Floor
100
AcDbLine
 10
32.85316634150889
 20
-22.79643726053963
 30
0.0
 11
32.160083894091436
 21
-22.051013006884684
 31
0.0
  0
LINE
  5
151
330
17
100
AcDbEntity
  8
Ground Floor
100
AcDbLine
 10
32.08684878642594
 20
-22.119105730469684
 30
0.0
 11
32.160083894091436
 21
-22.051013006884684
 31
0.0
  0
LINE
  5
152
330
17
100
AcDbEntity
  8
Ground Floor
100
AcDbLine
 10
32.77993123384339
 20
-22.86452998412463
 30
0.0
 11
32.160083894091436
 21
-22.051013006884684
 31
0.0
  0
LINE
  5
153
330
17
100
AcDbEntity
  8
Ground Floor
100
AcDbLine
 10
26.818204346352903
 20
-23.384296086272144
 30
0.0
 11
26.15908837736355
 21
-23.997130598537062
 31
0.0
  0
LINE
  5
154
330
17
100
AcDbEntity
  8
Ground Floor
100
AcDbLine
 10
26.193134739156047
 20
-24.033748152369807
 30
0.0
 11
26.8522507081454
 21
-23.42091364010489
 31
0.0
  0
LINE
  5
155
330
17
100
AcDbEntity
  8
Ground Floor
100
AcDbLine
 10
26.818204346352903
 20
-23.384296086272144
 30
0.0
 11
26.193134739156047
 21
-24.033748152369807
 31
0.0
  0
LINE
  5
156
330
17
100
AcDbEntity
  8
Ground Floor
100
AcDbLine
 10
28.614255545489403
 20
-22.055725391848878
 30
0.0
 11
28.682348269074406
 21
-22.128960499514374
 31
0.0
  0
LINE
  5
157
330
17
100
AcDbEntity
  8
Ground Floor
100
AcDbLine
 10
28.614255545489403
 20
-22.055725391848878
 30
0.0
 11
26.329320186326065
 21
-24.180218367700814
 31
0.0
  0
LINE
  5
158
330
17
100
AcDbEntity
  8
Ground Floor
100
AcDbLine
 10
26.39741290991107
 20
-24.25345347536631
 30
0.0
 11
28.682348269074406
 21
-22.128960499514374
 31
0.0
  0
LINE
  5
159
330
17
100
AcDbEntity
  8
Ground Floor
100
AcDbLine
 10
28.614255545489403
 20
-22.055725391848878
 30
0.0
 11
26.39741290991107
 21
-24.25345347536631
 31
0.0
  0
LINE
  5
15A
330
17
100
AcDbEntity
  8
Ground Floor
100
AcDbLine
 10
26.329320186326065
 20
-24.180218367700814
 30
0.0
 11
26.39741290991107
 21
-24.25345347536631
 31
0.0
  0
LINE
  5
15B
330
17
100
AcDbEntity
  8
First Floor
100
AcDbLine
 10
33.10074942668945
 20
-23.209576496548845
 30
0.0
 11
33.173984548272095
 21
-23.141483760023913
 31
0.0
  0
LINE
  5
15C
330
17
100
AcDbEntity
  8
First Floor
100
AcDbLine
 10
32.08684878642593
 20
-22.11910573046969
 30
0.0
 11
32.16008389409143
 21
-22.05101300688469
 31
0.0
  0
LINE
  5
15D
330
17
100
AcDbEntity
  8
First Floor
100
AcDbLine
 10
33.10074942668945
 20
-23.209576496548845
 30
0.0
 11
32.08684878642593
 21
-22.11910573046969
 31
0.0
  0
LINE
  5
15E
330
17
100
AcDbEntity
  8
First Floor
100
AcDbLine
 10
33.173984548272095
 20
-23.141483760023913
 30
0.0
 11
32.08684878642593
 21
-22.11910573046969
 31
0.0
  0
LINE
  5
15F
330
17
100
AcDbEntity
  8
First Floor
100
AcDbLine
 10
33.173984548272095
 20
-23.141483760023913
 30
0.0
 11
32.16008389409143
 21
-22.05101300688469
 31
0.0
  0
LINE
  5
160
330
17
100
AcDbEntity
  8
First Floor
100
AcDbLine
 10
34.65762352350521
 20
-24.737167621197205
 30
0.0
 11
34.58438841583971
 21
-24.805260344782205
 31
0.0
  0
LINE
  5
161
330
17
100
AcDbEntity
  8
First Floor
100
AcDbLine
 10
34.58438841583971
 20
-24.805260344782205
 30
0.0
 11
34.17583207432919
 21
-24.365849698788686
 31
0.0
  0
LINE
  5
162
330
17
100
AcDbEntity
  8
First Floor
100
AcDbLine
 10
34.65762352350521
 20
-24.737167621197205
 30
0.0
 11
34.24906718199469
 21
-24.297756975203686
 31
0.0
  0
LINE
  5
163
330
17
100
AcDbEntity
  8
First Floor
100
AcDbLine
 10
34.17583207432919
 20
-24.365849698788686
 30
0.0
 11
34.24906718199469
 21
-24.297756975203686
 31
0.0
  0
LINE
  5
164
330
17
100
AcDbEntity
  8
First Floor
100
AcDbLine
 10
34.58438841583971
 20
-24.805260344782205
 30
0.0
 11
34.24906718199469
 21
-24.297756975203686
 31
0.0
  0
LINE
  5
165
330
17
100
AcDbEntity
  8
First Floor
100
AcDbLine
 10
29.053029129726806
 20
-27.109622674321365
 30
0.0
 11
31.264729381224107
 21
-25.053222422054933
 31
0.0
  0
LINE
  5
166
330
17
100
AcDbEntity
  8
First Floor
100
AcDbLine
 10
29.053029129726806
 20
-27.109622674321365
 30
0.0
 11
28.950890044349308
 21
-26.999770012823124
 31
0.0
  0
LINE
  5
167
330
17
100
AcDbEntity
  8
First Floor
100
AcDbLine
 10
31.264729381224107
 20
-25.053222422054933
 30
0.0
 11
31.16259029584661
 21
-24.943369760556692
 31
0.0
  0
LINE
  5
168
330
17
100
AcDbEntity
  8
First Floor
100
AcDbLine
 10
28.950890044349308
 20
-26.999770012823124
 30
0.0
 11
31.16259029584661
 21
-24.943369760556692
 31
0.0
  0
LINE
  5
169
330
17
100
AcDbEntity
  8
First Floor
100
AcDbLine
 10
29.053029129726806
 20
-27.109622674321365
 30
0.0
 11
31.16259029584661
 21
-24.943369760556692
 31
0.0
  0
LINE
  5
16A
330
17
100
AcDbEntity
  8
First Floor
100
AcDbLine
 10
31.872421525051443
 20
-25.853666239119054
 30
0.0
 11
33.44483392243101
 21
-27.397969149625844
 31
0.0
  0
LINE
  5
16B
330
17
100
AcDbEntity
  8
First Floor
100
AcDbLine
 10
34.125761158281016
 20
-28.130320226280794
 30
0.0
 11
34.60241022337528
 21
-28.64296597993846
 31
0.0
  0
LINE
  5
16C
330
17
100
AcDbEntity
  8
First Floor
100
AcDbLine
 10
34.52917511570979
 20
-28.71105870352346
 30
0.0
 11
34.60241022337528
 21
-28.64296597993846
 31
0.0
  0
LINE
  5
16D
330
17
100
AcDbEntity
  8
First Floor
100
AcDbLine
 10
33.37159881476551
 20
-27.466061873210844
 30
0.0
 11
33.44483392243101
 21
-27.397969149625844
 31
0.0
  0
LINE
  5
16E
330
17
100
AcDbEntity
  8
First Floor
100
AcDbLine
 10
34.05252605061552
 20
-28.198412949865794
 30
0.0
 11
34.60241022337528
 21
-28.64296597993846
 31
0.0
  0
LINE
  5
16F
330
17
100
AcDbEntity
  8
First Floor
100
AcDbLine
 10
31.872421525051443
 20
-25.853666239119054
 30
0.0
 11
33.37159881476551
 21
-27.466061873210844
 31
0.0
  0
LINE
  5
170
330
17
100
AcDbEntity
  8
First Floor
100
AcDbLine
 10
31.225540619257316
 20
-25.157932682163477
 30
0.0
 11
31.29877572692281
 21
-25.089839958578477
 31
0.0
  0
LINE
  5
171
330
17
100
AcDbEntity
  8
First Floor
100
AcDbLine
 10
31.872421525051443
 20
-25.853666239119054
 30
0.0
 11
31.945656632716936
 21
-25.785573515534054
 31
0.0
  0
LINE
  5
172
330
17
100
AcDbEntity
  8
First Floor
100
AcDbLine
 10
31.945656632716936
 20
-25.785573515534054
 30
0.0
 11
33.44483392243101
 21
-27.397969149625844
 31
0.0
  0
LINE
  5
173
330
17
100
AcDbEntity
  8
First Floor
100
AcDbLine
 10
31.225540619257316
 20
-25.157932682163477
 30
0.0
 11
31.332822120451922
 21
-25.126457546544593
 31
0.0
  0
LINE
  5
174
330
17
100
AcDbEntity
  8
First Floor
100
AcDbLine
 10
34.05252605061552
 20
-28.198412949865794
 30
0.0
 11
34.52917511570979
 21
-28.71105870352346
 31
0.0
  0
LINE
  5
175
330
17
100
AcDbEntity
  8
First Floor
100
AcDbLine
 10
31.29877572692281
 20
-25.089839958578477
 30
0.0
 11
31.332822120451922
 21
-25.126457546544593
 31
0.0
  0
LINE
  5
176
330
17
100
AcDbEntity
  8
First Floor
100
AcDbLine
 10
31.25958701278643
 20
-25.194550270129593
 30
0.0
 11
31.332822120451922
 21
-25.126457546544593
 31
0.0
  0
LINE
  5
177
330
17
100
AcDbEntity
  8
First Floor
100
AcDbLine
 10
34.05252605061552
 20
-28.198412949865794
 30
0.0
 11
34.125761158281016
 21
-28.130320226280794
 31
0.0
  0
LINE
  5
178
330
17
100
AcDbEntity
  8
First Floor
100
AcDbLine
 10
31.225540619257316
 20
-25.157932682163477
 30
0.0
 11
31.25958701278643
 21
-25.194550270129593
 31
0.0
  0
LINE
  5
179
330
17
100
AcDbEntity
  8
First Floor
100
AcDbLine
 10
34.46108239212479
 20
-28.637823595857974
 30
0.0
 11
32.32261725659472
 21
-30.626131116820613
 31
0.0
  0
LINE
  5
17A
330
17
100
AcDbEntity
  8
First Floor
100
AcDbLine
 10
34.46108239212479
 20
-28.637823595857974
 30
0.0
 11
34.52917511570979
 21
-28.711058703523467
 31
0.0
  0
LINE
  5
17B
330
17
100
AcDbEntity
  8
First Floor
100
AcDbLine
 10
32.32261725659472
 20
-30.626131116820613
 30
0.0
 11
32.39070998035261
 21
-30.69936622432534
 31
0.0
  0
LINE
  5
17C
330
17
100
AcDbEntity
  8
First Floor
100
AcDbLine
 10
34.52917511570979
 20
-28.711058703523467
 30
0.0
 11
32.39070998035261
 21
-30.69936622432534
 31
0.0
  0
LINE
  5
17D
330
17
100
AcDbEntity
  8
First Floor
100
AcDbLine
 10
34.46108239212479
 20
-28.637823595857974
 30
0.0
 11
32.39070998035261
 21
-30.69936622432534
 31
0.0
  0
LINE
  5
17E
330
17
100
AcDbEntity
  8
First Floor
100
AcDbLine
 10
33.48586180085697
 20
-25.82665119855748
 30
0.0
 11
33.41262669319148
 21
-25.89474392214248
 31
0.0
  0
LINE
  5
17F
330
17
100
AcDbEntity
  8
First Floor
100
AcDbLine
 10
33.41262669319148
 20
-25.89474392214248
 30
0.0
 11
32.935977628095976
 21
-25.382098168483484
 31
0.0
  0
LINE
  5
180
330
17
100
AcDbEntity
  8
First Floor
100
AcDbLine
 10
33.48586180085697
 20
-25.82665119855748
 30
0.0
 11
33.009212735761466
 21
-25.314005444898484
 31
0.0
  0
LINE
  5
181
330
17
100
AcDbEntity
  8
First Floor
100
AcDbLine
 10
32.935977628095976
 20
-25.382098168483484
 30
0.0
 11
33.009212735761466
 21
-25.314005444898484
 31
0.0
  0
LINE
  5
182
330
17
100
AcDbEntity
  8
First Floor
100
AcDbLine
 10
33.41262669319148
 20
-25.89474392214248
 30
0.0
 11
33.009212735761466
 21
-25.314005444898484
 31
0.0
  0
LINE
  5
183
330
17
100
AcDbEntity
  8
First Floor
100
AcDbLine
 10
32.89494974966975
 20
-26.953416119551566
 30
0.0
 11
30.75648461016296
 21
-28.941723644211674
 31
0.0
  0
LINE
  5
184
330
17
100
AcDbEntity
  8
First Floor
100
AcDbLine
 10
32.89494974966975
 20
-26.953416119551566
 30
0.0
 11
32.96304247325475
 21
-27.026651227217062
 31
0.0
  0
LINE
  5
185
330
17
100
AcDbEntity
  8
First Floor
100
AcDbLine
 10
30.75648461016296
 20
-28.941723644211674
 30
0.0
 11
30.824577333920864
 21
-29.01495875171641
 31
0.0
  0
LINE
  5
186
330
17
100
AcDbEntity
  8
First Floor
100
AcDbLine
 10
32.96304247325475
 20
-27.026651227217062
 30
0.0
 11
30.824577333920864
 21
-29.01495875171641
 31
0.0
  0
LINE
  5
187
330
17
100
AcDbEntity
  8
First Floor
100
AcDbLine
 10
32.89494974966975
 20
-26.953416119551566
 30
0.0
 11
30.824577333920864
 21
-29.01495875171641
 31
0.0
  0
LINE
  5
188
330
17
100
AcDbEntity
  8
First Floor
100
AcDbLine
 10
33.004070351680966
 20
-25.455333276148984
 30
0.0
 11
32.20362655144102
 21
-26.063025404333498
 31
0.0
  0
LINE
  5
189
330
17
100
AcDbEntity
  8
First Floor
100
AcDbLine
 10
32.93597762809597
 20
-25.382098168483488
 30
0.0
 11
32.20362655144102
 21
-26.063025404333498
 31
0.0
  0
LINE
  5
18A
330
17
100
AcDbEntity
  8
First Floor
100
AcDbLine
 10
33.004070351680966
 20
-25.455333276148984
 30
0.0
 11
32.93597762809597
 21
-25.382098168483488
 31
0.0
  0
LINE
  5
18B
330
17
100
AcDbEntity
  8
First Floor
100
AcDbLine
 10
32.271719275026015
 20
-26.136260511998994
 30
0.0
 11
32.20362655144102
 21
-26.063025404333498
 31
0.0
  0
LINE
  5
18C
330
17
100
AcDbEntity
  8
First Floor
100
AcDbLine
 10
33.004070351680966
 20
-25.455333276148984
 30
0.0
 11
32.271719275026015
 21
-26.136260511998994
 31
0.0
  0
LINE
  5
18D
330
17
100
AcDbEntity
  8
First Floor
100
AcDbLine
 10
33.97669628765518
 20
-24.004816544542233
 30
0.0
 11
35.06057589323999
 21
-22.997044224200852
 31
0.0
  0
LINE
  5
18E
330
17
100
AcDbEntity
  8
First Floor
100
AcDbLine
 10
33.97669628765518
 20
-24.004816544542233
 30
0.0
 11
33.90860356407018
 21
-23.931581436876737
 31
0.0
  0
LINE
  5
18F
330
17
100
AcDbEntity
  8
First Floor
100
AcDbLine
 10
35.06057589323999
 20
-22.997044224200852
 30
0.0
 11
34.99248316965499
 21
-22.923809116535356
 31
0.0
  0
LINE
  5
190
330
17
100
AcDbEntity
  8
First Floor
100
AcDbLine
 10
33.90860356407018
 20
-23.931581436876737
 30
0.0
 11
34.99248316965499
 21
-22.923809116535356
 31
0.0
  0
LINE
  5
191
330
17
100
AcDbEntity
  8
First Floor
100
AcDbLine
 10
33.97669628765518
 20
-24.004816544542233
 30
0.0
 11
34.99248316965499
 21
-22.923809116535356
 31
0.0
  0
LINE
  5
192
330
17
100
AcDbEntity
  8
First Floor
100
AcDbLine
 10
34.58438841583971
 20
-24.805260344782205
 30
0.0
 11
34.516295692254715
 21
-24.732025237116712
 31
0.0
  0
LINE
  5
193
330
17
100
AcDbEntity
  8
First Floor
100
AcDbLine
 10
35.17026927716367
 20
-24.260518556102202
 30
0.0
 11
35.102176553578666
 21
-24.187283448436705
 31
0.0
  0
LINE
  5
194
330
17
100
AcDbEntity
  8
First Floor
100
AcDbLine
 10
35.74150312909001
 20
-23.72939530085583
 30
0.0
 11
35.102176553578666
 21
-24.187283448436705
 31
0.0
  0
LINE
  5
195
330
17
100
AcDbEntity
  8
First Floor
100
AcDbLine
 10
35.74150312909001
 20
-23.72939530085583
 30
0.0
 11
35.67341040550502
 21
-23.656160193190335
 31
0.0
  0
LINE
  5
196
330
17
100
AcDbEntity
  8
First Floor
100
AcDbLine
 10
35.67341040550502
 20
-23.656160193190335
 30
0.0
 11
35.102176553578666
 21
-24.187283448436705
 31
0.0
  0
LINE
  5
197
330
17
100
AcDbEntity
  8
First Floor
100
AcDbLine
 10
34.516295692254715
 20
-24.732025237116712
 30
0.0
 11
34.589530799920205
 21
-24.663932513531712
 31
0.0
  0
LINE
  5
198
330
17
100
AcDbEntity
  8
First Floor
100
AcDbLine
 10
34.65762352350521
 20
-24.73716762119721
 30
0.0
 11
34.589530799920205
 21
-24.663932513531712
 31
0.0
  0
LINE
  5
199
330
17
100
AcDbEntity
  8
First Floor
100
AcDbLine
 10
35.74150312909001
 20
-23.72939530085583
 30
0.0
 11
35.17026927716367
 21
-24.260518556102202
 31
0.0
  0
LINE
  5
19A
330
17
100
AcDbEntity
  8
First Floor
100
AcDbLine
 10
34.65762352350521
 20
-24.73716762119721
 30
0.0
 11
34.516295692254715
 21
-24.732025237116712
 31
0.0
  0
LINE
  5
19B
330
17
100
AcDbEntity
  8
First Floor
100
AcDbLine
 10
34.58438841583971
 20
-24.805260344782205
 30
0.0
 11
34.65762352350521
 21
-24.73716762119721
 31
0.0
  0
LINE
  5
19C
330
17
100
AcDbEntity
  8
First Floor
100
AcDbLine
 10
33.63896313480793
 20
-22.20236366350454
 30
0.0
 11
32.85316634150888
 21
-22.796437260539637
 31
0.0
  0
LINE
  5
19D
330
17
100
AcDbEntity
  8
First Floor
100
AcDbLine
 10
33.63896313480793
 20
-22.20236366350454
 30
0.0
 11
33.57087041303259
 21
-22.129128556753624
 31
0.0
  0
LINE
  5
19E
330
17
100
AcDbEntity
  8
First Floor
100
AcDbLine
 10
32.92125906509388
 20
-22.869672368205123
 30
0.0
 11
32.85316634150888
 21
-22.796437260539637
 31
0.0
  0
LINE
  5
19F
330
17
100
AcDbEntity
  8
First Floor
100
AcDbLine
 10
33.63896313480793
 20
-22.20236366350454
 30
0.0
 11
32.92125906509388
 21
-22.869672368205123
 31
0.0
  0
LINE
  5
1A0
330
17
100
AcDbEntity
  8
First Floor
100
AcDbLine
 10
33.57087041303259
 20
-22.129128556753624
 30
0.0
 11
32.85316634150888
 21
-22.796437260539637
 31
0.0
  0
LINE
  5
1A1
330
17
100
AcDbEntity
  8
First Floor
100
AcDbLine
 10
33.88654623564922
 20
-22.615502917711495
 30
0.0
 11
33.95978134331471
 21
-22.547410194126492
 31
0.0
  0
LINE
  5
1A2
330
17
100
AcDbEntity
  8
First Floor
100
AcDbLine
 10
33.88654623564922
 20
-22.615502917711495
 30
0.0
 11
33.565728012549904
 21
-22.27045640065741
 31
0.0
  0
LINE
  5
1A3
330
17
100
AcDbEntity
  8
First Floor
100
AcDbLine
 10
33.638963120215394
 20
-22.202363677072405
 30
0.0
 11
33.565728012549904
 21
-22.27045640065741
 31
0.0
  0
LINE
  5
1A4
330
17
100
AcDbEntity
  8
First Floor
100
AcDbLine
 10
33.95978134331471
 20
-22.547410194126492
 30
0.0
 11
33.565728012549904
 21
-22.27045640065741
 31
0.0
  0
LINE
  5
1A5
330
17
100
AcDbEntity
  8
First Floor
100
AcDbLine
 10
33.95978134331471
 20
-22.547410194126492
 30
0.0
 11
33.638963120215394
 21
-22.202363677072405
 31
0.0
  0
LINE
  5
1A6
330
17
100
AcDbEntity
  8
First Floor
100
AcDbLine
 10
33.41262669319148
 20
-25.89474392214248
 30
0.0
 11
33.62389500612604
 21
-26.07790969594525
 31
0.0
  0
LINE
  5
1A7
330
17
100
AcDbEntity
  8
First Floor
100
AcDbLine
 10
33.41262669319148
 20
-25.89474392214248
 30
0.0
 11
33.60192443989941
 21
-26.098337544565464
 31
0.0
  0
LINE
  5
1A8
330
17
100
AcDbEntity
  8
First Floor
100
AcDbLine
 10
34.214758944911345
 20
-26.757453520298714
 30
0.0
 11
35.097799463383026
 21
-27.66312395382926
 31
0.0
  0
LINE
  5
1A9
330
17
100
AcDbEntity
  8
First Floor
100
AcDbLine
 10
34.236729511137966
 20
-26.737025671678502
 30
0.0
 11
35.097799463383026
 21
-27.66312395382926
 31
0.0
  0
LINE
  5
1AA
330
17
100
AcDbEntity
  8
First Floor
100
AcDbLine
 10
33.434597259418105
 20
-25.874316073522273
 30
0.0
 11
33.62389500612604
 21
-26.07790969594525
 31
0.0
  0
LINE
  5
1AB
330
17
100
AcDbEntity
  8
First Floor
100
AcDbLine
 10
34.214758944911345
 20
-26.757453520298714
 30
0.0
 11
35.0758288971564
 21
-27.68355180244947
 31
0.0
  0
LINE
  5
1AC
330
17
100
AcDbEntity
  8
First Floor
100
AcDbLine
 10
34.325956887997656
 20
-22.206946570292267
 30
0.0
 11
33.95985457842238
 21
-22.547342101402908
 31
0.0
  0
LINE
  5
1AD
330
17
100
AcDbEntity
  8
First Floor
100
AcDbLine
 10
34.325956887997656
 20
-22.206946570292267
 30
0.0
 11
34.25786416412518
 21
-22.133711462894073
 31
0.0
  0
LINE
  5
1AE
330
17
100
AcDbEntity
  8
First Floor
100
AcDbLine
 10
33.95985457842238
 20
-22.547342101402908
 30
0.0
 11
33.89176189699155
 21
-22.474107039075076
 31
0.0
  0
LINE
  5
1AF
330
17
100
AcDbEntity
  8
First Floor
100
AcDbLine
 10
34.25786416412518
 20
-22.133711462894073
 30
0.0
 11
33.89176189699155
 21
-22.474107039075076
 31
0.0
  0
LINE
  5
1B0
330
17
100
AcDbEntity
  8
First Floor
100
AcDbLine
 10
34.325956887997656
 20
-22.206946570292267
 30
0.0
 11
33.89176189699155
 21
-22.474107039075076
 31
0.0
  0
LINE
  5
1B1
330
17
100
AcDbEntity
  8
First Floor
100
AcDbLine
 10
34.175832065668985
 20
-24.365849706840812
 30
0.0
 11
33.78842402759063
 21
-23.94918449086176
 31
0.0
  0
LINE
  5
1B2
330
17
100
AcDbEntity
  8
First Floor
100
AcDbLine
 10
33.316917355236335
 20
-23.29521089790068
 30
0.0
 11
32.989351788678896
 21
-22.942907475870616
 31
0.0
  0
LINE
  5
1B3
330
17
100
AcDbEntity
  8
First Floor
100
AcDbLine
 10
34.2490671819947
 20
-24.297756975203693
 30
0.0
 11
33.86165914391634
 21
-23.881091759224642
 31
0.0
  0
LINE
  5
1B4
330
17
100
AcDbEntity
  8
First Floor
100
AcDbLine
 10
32.91611667235318
 20
-23.011000207507735
 30
0.0
 11
32.989351788678896
 21
-22.942907475870616
 31
0.0
  0
LINE
  5
1B5
330
17
100
AcDbEntity
  8
First Floor
100
AcDbLine
 10
33.78842402759063
 20
-23.94918449086176
 30
0.0
 11
33.86165914391634
 21
-23.881091759224642
 31
0.0
  0
LINE
  5
1B6
330
17
100
AcDbEntity
  8
First Floor
100
AcDbLine
 10
34.175832065668985
 20
-24.365849706840812
 30
0.0
 11
34.2490671819947
 21
-24.297756975203693
 31
0.0
  0
LINE
  5
1B7
330
17
100
AcDbEntity
  8
First Floor
100
AcDbLine
 10
33.24368223891062
 20
-23.3633036295378
 30
0.0
 11
32.91611667235318
 21
-23.011000207507735
 31
0.0
  0
LINE
  5
1B8
330
17
100
AcDbEntity
  8
First Floor
100
AcDbLine
 10
33.316917355236335
 20
-23.29521089790068
 30
0.0
 11
32.91611667235318
 21
-23.011000207507735
 31
0.0
  0
LINE
  5
1B9
330
17
100
AcDbEntity
  8
First Floor
100
AcDbLine
 10
34.175832065668985
 20
-24.365849706840812
 30
0.0
 11
33.86165914391634
 21
-23.881091759224642
 31
0.0
  0
LINE
  5
1BA
330
17
100
AcDbEntity
  8
First Floor
100
AcDbLine
 10
33.24368223891062
 20
-23.3633036295378
 30
0.0
 11
33.316917355236335
 21
-23.29521089790068
 31
0.0
  0
LINE
  5
1BB
330
17
100
AcDbEntity
  8
First Floor
100
AcDbLine
 10
34.17948666631103
 20
-22.34313202337166
 30
0.0
 11
34.21610422014378
 21
-22.309085661579157
 31
0.0
  0
LINE
  5
1BC
330
17
100
AcDbEntity
  8
First Floor
100
AcDbLine
 10
34.17948666631103
 20
-22.34313202337166
 30
0.0
 11
34.846012942188
 21
-23.059994574989194
 31
0.0
  0
LINE
  5
1BD
330
17
100
AcDbEntity
  8
First Floor
100
AcDbLine
 10
34.882630496020745
 20
-23.025948213196692
 30
0.0
 11
34.21610422014378
 21
-22.309085661579157
 31
0.0
  0
LINE
  5
1BE
330
17
100
AcDbEntity
  8
First Floor
100
AcDbLine
 10
34.17948666631103
 20
-22.34313202337166
 30
0.0
 11
34.882630496020745
 21
-23.025948213196692
 31
0.0
  0
LINE
  5
1BF
330
17
100
AcDbEntity
  8
First Floor
100
AcDbLine
 10
34.846012942188
 20
-23.059994574989194
 30
0.0
 11
34.882630496020745
 21
-23.025948213196692
 31
0.0
  0
LINE
  5
1C0
330
17
100
AcDbEntity
  8
First Floor
100
AcDbLine
 10
34.91410566577301
 20
-23.13322968265469
 30
0.0
 11
34.950723219605756
 21
-23.09918332086219
 31
0.0
  0
LINE
  5
1C1
330
17
100
AcDbEntity
  8
First Floor
100
AcDbLine
 10
34.950723219605756
 20
-23.09918332086219
 30
0.0
 11
35.56355773187079
 21
-23.758299289851667
 31
0.0
  0
LINE
  5
1C2
330
17
100
AcDbEntity
  8
First Floor
100
AcDbLine
 10
34.91410566577301
 20
-23.13322968265469
 30
0.0
 11
35.52694017803804
 21
-23.79234565164417
 31
0.0
  0
LINE
  5
1C3
330
17
100
AcDbEntity
  8
First Floor
100
AcDbLine
 10
35.56355773187079
 20
-23.758299289851667
 30
0.0
 11
35.52694017803804
 21
-23.79234565164417
 31
0.0
  0
LINE
  5
1C4
330
17
100
AcDbEntity
  8
First Floor
100
AcDbLine
 10
34.950723219605756
 20
-23.09918332086219
 30
0.0
 11
35.52694017803804
 21
-23.79234565164417
 31
0.0
  0
LINE
  5
1C5
330
17
100
AcDbEntity
  8
First Floor
100
AcDbLine
 10
33.07698574361052
 20
-25.38689669179425
 30
0.0
 11
34.17071662255401
 21
-24.360347926473086
 31
0.0
  0
LINE
  5
1C6
330
17
100
AcDbEntity
  8
First Floor
100
AcDbLine
 10
34.10262323178955
 20
-24.287112101242535
 30
0.0
 11
33.009212735761466
 21
-25.31400544489848
 31
0.0
  0
LINE
  5
1C7
330
17
100
AcDbEntity
  8
First Floor
100
AcDbLine
 10
34.17071662255401
 20
-24.360347926473086
 30
0.0
 11
34.10262323178955
 21
-24.287112101242535
 31
0.0
  0
LINE
  5
1C8
330
17
100
AcDbEntity
  8
First Floor
100
AcDbLine
 10
33.07698574361052
 20
-25.38689669179425
 30
0.0
 11
33.009212735761466
 21
-25.31400544489848
 31
0.0
  0
LINE
  5
1C9
330
17
100
AcDbEntity
  8
First Floor
100
AcDbLine
 10
34.10262323178955
 20
-24.287112101242535
 30
0.0
 11
32.935977628095536
 21
-25.382098168483893
 31
0.0
  0
LINE
  5
1CA
330
17
100
AcDbEntity
  8
First Floor
100
AcDbLine
 10
32.935977628095536
 20
-25.382098168483893
 30
0.0
 11
33.009212735761466
 21
-25.31400544489848
 31
0.0
  0
LINE
  5
1CB
330
17
100
AcDbEntity
  8
First Floor
100
AcDbLine
 10
34.17071662255401
 20
-24.360347926473086
 30
0.0
 11
33.009212735761466
 21
-25.31400544489848
 31
0.0
  0
ENDSEC
  0
SECTION
  2
OBJECTS
  0
DICTIONARY
  5
A
330
0
100
AcDbDictionary
281
1
  3
ACAD_COLOR
350
B
  3
ACAD_GROUP
350
C
  3
ACAD_LAYOUT
350
D
  3
ACAD_MATERIAL
350
E
  3
ACAD_MLEADERSTYLE
350
F
  3
ACAD_MLINESTYLE
350
10
  3
ACAD_PLOTSETTINGS
350
11
  3
ACAD_PLOTSTYLENAME
350
12
  3
ACAD_SCALELIST
350
14
  3
ACAD_TABLESTYLE
350
15
  3
ACAD_VISUALSTYLE
350
16
  3
EZDXF_META
350
2D
  0
DICTIONARY
  5
B
330
A
100
AcDbDictionary
281
1
  0
DICTIONARY
  5
C
330
A
100
AcDbDictionary
281
1
  0
DICTIONARY
  5
D
330
A
100
AcDbDictionary
281
1
  3
Model
350
1A
  3
Layout1
350
1E
  0
DICTIONARY
  5
E
330
A
100
AcDbDictionary
281
1
  3
ByBlock
350
1F
  3
ByLayer
350
20
  3
Global
350
21
  0
DICTIONARY
  5
F
330
A
100
AcDbDictionary
281
1
  3
Standard
350
2C
  0
DICTIONARY
  5
10
330
A
100
AcDbDictionary
281
1
  3
Standard
350
22
  0
DICTIONARY
  5
11
330
A
100
AcDbDictionary
281
1
  0
ACDBDICTIONARYWDFLT
  5
12
330
A
100
AcDbDictionary
281
1
  3
Normal
350
13
100
AcDbDictionaryWithDefault
340
13
  0
ACDBPLACEHOLDER
  5
13
330
12
  0
DICTIONARY
  5
14
330
A
100
AcDbDictionary
281
1
  0
DICTIONARY
  5
15
330
A
100
AcDbDictionary
281
1
  0
DICTIONARY
  5
16
330
A
100
AcDbDictionary
281
1
  0
LAYOUT
  5
1A
330
D
100
AcDbPlotSettings
  1

  4
A3
  6

 40
7.5
 41
20.0
 42
7.5
 43
20.0
 44
420.0
 45
297.0
 46
0.0
 47
0.0
 48
0.0
 49
0.0
140
0.0
141
0.0
142
1.0
143
1.0
 70
1024
 72
1
 73
0
 74
5
  7

 75
16
 76
0
 77
2
 78
300
147
1.0
148
0.0
149
0.0
100
AcDbLayout
  1
Model
 70
1
 71
0
 10
0.0
 20
0.0
 11
420.0
 21
297.0
 12
0.0
 22
0.0
 32
0.0
 14
1e+20
 24
1e+20
 34
1e+20
 15
-1e+20
 25
-1e+20
 35
-1e+20
146
0.0
 13
0.0
 23
0.0
 33
0.0
 16
1.0
 26
0.0
 36
0.0
 17
0.0
 27
1.0
 37
0.0
 76
1
330
17
  0
LAYOUT
  5
1E
330
D
100
AcDbPlotSettings
  1

  4
A3
  6

 40
7.5
 41
20.0
 42
7.5
 43
20.0
 44
420.0
 45
297.0
 46
0.0
 47
0.0
 48
0.0
 49
0.0
140
0.0
141
0.0
142
1.0
143
1.0
 70
0
 72
1
 73
0
 74
5
  7

 75
16
 76
0
 77
2
 78
300
147
1.0
148
0.0
149
0.0
100
AcDbLayout
  1
Layout1
 70
1
 71
1
 10
0.0
 20
0.0
 11
420.0
 21
297.0
 12
0.0
 22
0.0
 32
0.0
 14
1e+20
 24
1e+20
 34
1e+20
 15
-1e+20
 25
-1e+20
 35
-1e+20
146
0.0
 13
0.0
 23
0.0
 33
0.0
 16
1.0
 26
0.0
 36
0.0
 17
0.0
 27
1.0
 37
0.0
 76
1
330
1B
  0
MATERIAL
  5
1F
102
{ACAD_REACTORS
330
E
102
}
330
E
100
AcDbMaterial
  1
ByBlock
  2

 70
0
 40
1.0
 71
1
 41
1.0
 91
-1023410177
 42
1.0
 72
1
  3

 73
1
 74
1
 75
1
 44
0.5
 73
0
 45
1.0
 46
1.0
 77
1
  4

 78
1
 79
1
170
1
 48
1.0
171
1
  6

172
1
173
1
174
1
140
1.0
141
1.0
175
1
  7

176
1
177
1
178
1
143
1.0
179
1
  8

270
1
271
1
272
1
145
1.0
146
1.0
273
1
  9

274
1
275
1
276
1
 42
1.0
 72
1
  3

 73
1
 74
1
 75
1
 94
63
  0
MATERIAL
  5
20
102
{ACAD_REACTORS
330
E
102
}
330
E
100
AcDbMaterial
  1
ByLayer
  2

 70
0
 40
1.0
 71
1
 41
1.0
 91
-1023410177
 42
1.0
 72
1
  3

 73
1
 74
1
 75
1
 44
0.5
 73
0
 45
1.0
 46
1.0
 77
1
  4

 78
1
 79
1
170
1
 48
1.0
171
1
  6

172
1
173
1
174
1
140
1.0
141
1.0
175
1
  7

176
1
177
1
178
1
143
1.0
179
1
  8

270
1
271
1
272
1
145
1.0
146
1.0
273
1
  9

274
1
275
1
276
1
 42
1.0
 72
1
  3

 73
1
 74
1
 75
1
 94
63
  0
MATERIAL
  5
21
102
{ACAD_REACTORS
330
E
102
}
330
E
100
AcDbMaterial
  1
Global
  2

 70
0
 40
1.0
 71
1
 41
1.0
 91
-1023410177
 42
1.0
 72
1
  3

 73
1
 74
1
 75
1
 44
0.5
 73
0
 45
1.0
 46
1.0
 77
1
  4

 78
1
 79
1
170
1
 48
1.0
171
1
  6

172
1
173
1
174
1
140
1.0
141
1.0
175
1
  7

176
1
177
1
178
1
143
1.0
179
1
  8

270
1
271
1
272
1
145
1.0
146
1.0
273
1
  9

274
1
275
1
276
1
 42
1.0
 72
1
  3

 73
1
 74
1
 75
1
 94
63
  0
MLINESTYLE
  5
22
102
{ACAD_REACTORS
330
10
102
}
330
10
100
AcDbMlineStyle
  2
Standard
 70
0
  3

 62
256
 51
90.0
 52
90.0
 71
2
 49
0.5
 62
256
  6
BYLAYER
 49
-0.5
 62
256
  6
BYLAYER
  0
MLEADERSTYLE
  5
2C
102
{ACAD_REACTORS
330
F
102
}
330
F
100
AcDbMLeaderStyle
179
2
170
2
171
1
172
0
 90
2
 40
0.0
 41
0.0
173
1
 91
-1056964608
 92
-2
290
1
 42
2.0
291
1
 43
8.0
  3
Standard
 44
4.0
300

342
29
174
1
175
1
176
0
178
1
 93
-1056964608
 45
4.0
292
0
297
0
 46
4.0
 94
-1056964608
 47
1.0
 49
1.0
140
1.0
294
1
141
0.0
177
0
142
1.0
295
0
296
0
143
3.75
271
0
272
9
273
9
  0
DICTIONARY
  5
2D
330
A
100
AcDbDictionary
280
1
281
1
  3
CREATED_BY_EZDXF
350
2E
  3
WRITTEN_BY_EZDXF
350
1CE
  0
DICTIONARYVAR
  5
2E
330
2D
100
DictionaryVariables
280
0
  1
1.4.4 @ 2026-06-07T18:09:54.719539+00:00
  0
DICTIONARYVAR
  5
1CE
330
2D
100
DictionaryVariables
280
0
  1
1.4.4 @ 2026-06-07T18:09:54.751605+00:00
  0
ENDSEC
  0
EOF
